<?xml version="1.0" standalone="no"?>
<!DOCTYPE svg PUBLIC "-//W3C//DTD SVG 20010904//EN"
 "http://www.w3.org/TR/2001/REC-SVG-20010904/DTD/svg10.dtd">
<svg version="1.0" xmlns="http://www.w3.org/2000/svg"
 width="917.000000pt" height="672.000000pt" viewBox="0 0 917.000000 672.000000"
 preserveAspectRatio="xMidYMid meet">

<g transform="translate(0.000000,672.000000) scale(0.100000,-0.100000)"
fill="#000000" stroke="none">
<path d="M4830 6630 c0 -11 4 -20 9 -20 11 0 22 26 14 34 -12 12 -23 5 -23
-14z"/>
<path d="M4099 6389 c-57 -43 -70 -59 -46 -59 19 0 96 57 104 76 10 28 -3 24
-58 -17z"/>
<path d="M5637 6226 c-22 -17 -42 -85 -30 -97 14 -14 62 42 69 79 7 36 -7 42
-39 18z"/>
<path d="M3497 6204 c-10 -10 4 -40 25 -53 24 -15 32 -9 23 18 -6 21 -38 45
-48 35z"/>
<path d="M2867 6194 c-14 -14 -7 -35 11 -32 9 2 17 10 17 17 0 16 -18 25 -28
15z"/>
<path d="M2420 6173 c-21 -8 -30 -24 -30 -51 0 -19 4 -23 27 -20 27 3 45 37
35 66 -4 13 -9 14 -32 5z"/>
<path d="M5516 6135 c-15 -14 -24 -30 -20 -37 5 -7 15 -2 31 16 20 24 30 46
19 46 -1 0 -15 -11 -30 -25z"/>
<path d="M4997 6112 c-25 -28 -46 -85 -53 -147 -7 -55 -8 -56 -52 -77 -25 -11
-64 -27 -86 -34 l-40 -15 -31 37 -31 37 -29 -58 c-29 -56 -30 -57 -65 -50 -69
13 -75 12 -78 -20 -6 -45 -29 -56 -68 -33 l-32 19 -7 -23 c-28 -97 -58 -124
-106 -95 -18 11 -24 8 -49 -20 -35 -39 -52 -41 -80 -11 -17 18 -19 30 -14 65
6 38 4 43 -17 47 -129 29 -162 36 -175 36 -19 0 -18 -34 1 -50 20 -16 19 -36
-1 -44 -32 -12 -40 -5 -53 45 -15 56 -26 64 -111 75 -43 6 -50 4 -50 -10 0 -9
14 -25 31 -34 60 -34 65 -38 50 -56 -7 -9 -32 -21 -54 -27 -41 -11 -42 -10
-76 27 l-34 37 -16 -23 c-41 -60 -77 -87 -129 -99 -29 -6 -66 -11 -83 -11 -16
0 -46 -7 -66 -15 -50 -21 -60 -20 -157 25 -98 46 -106 47 -106 21 0 -10 -16
-31 -35 -45 -45 -35 -46 -71 -5 -158 16 -34 30 -74 30 -87 0 -13 -17 -47 -38
-75 -21 -28 -42 -64 -48 -81 -7 -24 -16 -31 -41 -33 -30 -3 -33 -1 -43 40 -6
24 -20 73 -30 110 -25 82 -25 81 0 73 19 -6 20 -3 14 22 -11 45 -24 64 -41 61
-14 -2 -16 -16 -14 -73 1 -38 6 -105 12 -148 5 -42 7 -82 4 -87 -3 -6 -22 -10
-40 -10 -93 0 -569 -71 -950 -141 -175 -33 -194 -34 -201 -15 -9 24 -27 19
-45 -12 -12 -20 -36 -34 -95 -56 -90 -33 -209 -90 -219 -106 -4 -6 22 5 57 25
121 66 269 107 611 169 231 42 460 78 722 112 66 8 206 18 310 21 222 7 331
-5 580 -63 33 -7 182 -41 330 -75 149 -34 344 -81 435 -105 90 -24 167 -44
170 -44 3 0 10 13 16 28 l11 29 144 -22 c301 -46 449 -85 1084 -283 408 -128
805 -285 805 -318 0 -10 -6 -11 -26 -4 -45 18 -40 10 11 -16 59 -29 366 -122
433 -131 26 -3 68 -16 93 -29 45 -23 46 -23 57 -91 17 -107 31 -275 36 -440
l4 -153 -30 0 -30 0 7 221 8 221 -29 60 -29 60 -38 -6 c-31 -5 -44 -2 -70 18
-42 33 -56 37 -258 90 -96 25 -401 104 -679 176 -278 72 -678 176 -890 232
-503 131 -533 138 -665 138 -68 0 -120 5 -135 13 -29 14 -103 130 -128 199
-20 57 -38 67 -54 32 -15 -32 6 -35 -368 49 -392 87 -380 86 -423 47 -56 -49
-103 -177 -152 -415 -25 -126 -47 -256 -44 -260 3 -2 99 -18 214 -35 348 -52
567 -89 579 -99 6 -5 72 -19 146 -31 170 -28 165 -27 150 -45 -6 -7 -30 -15
-53 -17 l-42 -3 -17 -95 c-9 -52 -17 -96 -17 -97 -2 -6 -43 -3 -117 8 l-77 12
7 111 7 111 -35 -34 c-35 -34 -36 -37 -36 -109 l0 -74 -40 6 c-22 3 -58 9 -80
12 l-41 6 3 56 3 57 73 -3 c47 -3 72 0 72 7 0 7 -41 11 -122 11 -68 0 -152 3
-188 6 l-66 6 4 68 c4 59 2 69 -14 74 -11 3 -100 19 -199 36 -99 17 -205 38
-235 47 -78 23 -217 21 -309 -5 l-75 -21 -40 46 -40 45 -95 -7 c-53 -4 -98 -9
-100 -10 -2 -2 6 -19 18 -38 11 -19 21 -41 21 -50 0 -9 4 -19 10 -22 9 -5 105
8 155 21 11 3 -7 -10 -40 -30 -72 -43 -114 -90 -150 -166 -15 -31 -32 -57 -39
-57 -6 -1 -42 -9 -80 -19 -71 -18 -77 -18 -201 15 -26 6 -91 7 -195 1 -241
-15 -434 -31 -440 -37 -7 -7 292 5 406 17 137 15 205 12 269 -10 74 -25 95
-25 177 4 69 25 74 23 62 -20 -10 -38 -103 -57 -474 -93 -255 -25 -420 -34
-625 -35 -232 -1 -253 2 -387 58 -45 19 -53 30 -33 49 13 13 13 16 -2 21 -22
9 -182 23 -349 32 -121 6 -134 5 -180 -15 -55 -25 -99 -62 -120 -103 -21 -41
-17 -57 6 -22 33 51 108 85 201 91 62 5 79 3 79 -7 0 -8 -24 -45 -54 -84 -110
-144 -135 -200 -190 -419 -29 -119 -45 -139 -100 -135 -36 3 -43 7 -58 39 -16
35 -16 43 -1 139 16 99 16 103 -2 116 -18 13 -18 16 -1 96 35 167 116 285 231
339 87 41 145 49 365 49 163 0 200 3 210 15 10 12 38 15 137 15 90 0 125 3
128 13 2 6 27 75 56 152 100 272 154 364 229 386 42 13 102 5 119 -14 9 -12
-4 -254 -24 -426 l-7 -53 74 6 c108 10 128 15 128 34 0 39 30 405 33 408 2 2
120 -16 263 -40 l259 -43 36 -56 c59 -91 48 -87 216 -87 90 1 177 -5 223 -14
249 -48 322 -58 330 -46 5 8 20 79 35 159 15 80 38 192 51 248 25 107 31 230
14 264 -6 10 -25 27 -43 36 -86 47 -648 0 -1232 -103 -263 -47 -417 -78 -528
-109 -49 -13 -93 -22 -97 -20 -4 2 -16 -6 -28 -18 -55 -59 -126 -208 -234
-492 -61 -161 -70 -175 -109 -175 -16 0 -32 -6 -34 -12 -4 -10 -46 -12 -178
-9 -287 5 -409 -24 -512 -125 -55 -53 -105 -155 -128 -259 -19 -83 -33 -297
-23 -349 12 -64 92 -94 175 -65 39 14 56 46 87 162 47 175 85 251 175 352 30
33 67 76 82 94 l28 34 110 -8 c98 -6 113 -9 134 -31 13 -13 31 -24 40 -24 13
0 15 -6 11 -27 -3 -16 -2 -34 3 -41 5 -8 3 -43 -6 -85 -75 -387 -105 -578
-138 -892 -22 -204 -23 -205 -51 -205 -30 0 -32 -26 -2 -35 21 -7 21 -8 14
-209 -10 -290 -19 -387 -40 -398 -20 -11 -21 -38 -2 -38 20 0 29 -16 21 -40
-5 -17 -15 -20 -65 -20 -40 0 -64 -5 -74 -16 -29 -29 -16 -61 29 -70 42 -8 73
9 91 49 l14 32 -3 -44 c-2 -40 1 -47 31 -67 19 -13 76 -39 128 -60 52 -20 94
-40 94 -45 0 -40 -378 -230 -487 -244 -29 -4 -55 -11 -58 -15 -3 -5 -8 -30
-12 -56 l-6 -47 57 6 c42 4 82 19 151 56 l95 51 88 -29 c49 -16 117 -35 151
-42 54 -10 63 -15 77 -44 8 -17 30 -47 49 -65 19 -19 35 -38 35 -43 0 -6 -18
-27 -40 -47 -42 -38 -52 -76 -24 -87 11 -4 13 -13 9 -34 -8 -35 -4 -36 43 -4
20 14 42 25 48 25 6 0 19 -18 29 -39 17 -39 17 -40 -4 -74 -31 -51 -28 -60 18
-52 24 4 49 2 63 -5 40 -21 88 -73 88 -96 0 -30 12 -36 45 -24 40 15 48 3 24
-36 l-21 -35 120 7 121 7 14 -35 c20 -49 32 -53 74 -28 53 31 83 21 83 -28 0
-20 -9 -70 -20 -111 -11 -41 -17 -77 -14 -80 13 -13 55 54 78 126 13 43 28 78
32 79 5 1 40 12 77 24 77 23 98 21 117 -15 18 -34 26 -32 58 15 34 49 45 53
89 35 48 -20 51 -20 61 18 9 34 44 49 65 28 24 -24 47 -11 74 44 28 58 45 66
79 40 26 -20 28 -19 69 16 l36 32 27 -24 c15 -13 29 -25 31 -26 2 -2 -2 -21
-9 -43 -8 -25 -10 -44 -4 -50 12 -12 186 -62 193 -55 3 3 0 20 -7 37 -8 23 -9
35 -1 45 21 24 38 13 49 -29 6 -24 13 -50 16 -58 4 -15 133 -64 143 -55 10 11
-20 55 -49 70 -28 15 -39 38 -22 48 4 3 28 8 53 12 37 5 49 3 60 -10 52 -62
47 -62 93 -9 l42 47 110 8 c60 4 121 10 136 14 21 5 47 -4 121 -44 52 -28 97
-51 101 -51 3 0 6 11 6 24 0 19 6 25 27 28 14 2 35 15 47 31 l20 27 -24 73
c-12 39 -23 92 -24 116 0 39 4 48 41 80 23 20 49 52 57 72 17 42 40 63 59 56
9 -3 20 -46 30 -118 21 -138 21 -139 2 -139 -10 0 -15 -10 -15 -29 0 -31 22
-61 45 -61 12 0 15 34 17 186 l3 186 70 19 70 18 25 -27 c14 -15 33 -38 42
-51 18 -25 38 -21 38 7 0 33 67 158 99 185 36 30 82 35 101 11 28 -33 50 -37
76 -13 19 18 29 21 42 13 90 -55 75 -56 182 11 30 19 60 35 66 35 7 0 16 -20
20 -45 5 -34 14 -51 38 -70 17 -14 37 -30 43 -35 8 -6 10 -22 6 -40 -7 -36 -5
-36 35 -7 l32 24 57 -29 c32 -16 58 -32 57 -36 -1 -17 -26 -65 -68 -130 -25
-39 -56 -92 -70 -119 -13 -26 -43 -67 -67 -91 l-43 -43 22 -44 c12 -25 26 -45
31 -45 4 0 29 23 55 50 66 70 169 291 184 393 8 57 22 67 51 38 12 -12 25 -21
29 -21 4 0 26 18 47 40 59 61 98 54 64 -11 l-19 -39 20 0 c12 0 31 5 42 11 31
16 42 -1 29 -47 -13 -48 -7 -54 67 -75 l57 -16 -3 -60 c-3 -62 11 -93 44 -93
8 0 18 -10 23 -22 8 -21 10 -19 32 25 17 34 29 47 44 47 31 0 62 -39 70 -87 4
-24 9 -43 12 -43 3 0 21 14 41 31 34 30 38 31 96 25 44 -5 66 -13 79 -28 l18
-21 29 28 c34 32 52 26 43 -15 -3 -17 -2 -30 3 -30 5 0 46 32 92 70 46 39 88
70 95 70 7 0 23 -9 37 -20 37 -29 48 -25 72 25 25 51 55 67 72 39 6 -9 27 -53
46 -97 44 -101 66 -114 56 -34 -3 31 -15 82 -27 112 l-21 56 57 69 c32 39 61
70 67 70 5 0 22 -7 37 -15 16 -8 31 -11 35 -8 3 4 6 32 6 64 l0 57 48 18 c26
10 48 19 50 20 2 1 -4 13 -12 27 -23 34 -11 55 37 65 37 7 42 11 38 33 -3 13
-5 47 -5 74 l-1 50 37 3 c35 3 38 6 50 50 13 45 15 47 48 44 37 -4 60 -24 60
-53 0 -38 23 -39 115 -5 49 18 91 38 93 44 2 6 -8 17 -22 23 -17 8 -26 20 -26
36 0 32 25 30 67 -7 38 -34 49 -35 118 -11 68 24 66 45 -4 51 -30 3 -56 10
-58 17 -3 7 11 28 29 48 33 36 35 37 73 26 64 -17 65 -17 65 45 0 63 -3 59
148 192 l72 64 98 13 c53 8 101 15 105 15 4 0 3 9 -4 21 -9 17 -7 25 10 43 41
43 26 75 -69 151 -81 64 -100 106 -74 158 13 25 14 37 4 73 -13 47 -7 94 13
94 7 0 53 -41 102 -90 68 -68 87 -93 76 -99 -11 -7 -9 -15 10 -40 26 -36 21
-34 53 -20 l25 12 -28 36 c-62 80 -178 237 -185 249 -5 7 11 34 41 70 26 31
48 58 49 60 1 2 30 -4 64 -13 34 -9 64 -15 65 -13 2 2 -7 35 -21 73 -29 86
-31 149 -4 192 31 51 56 59 101 34 30 -17 43 -20 59 -11 26 14 26 42 0 58 -33
20 -23 32 28 32 61 0 76 12 97 80 10 30 24 63 33 73 16 18 72 24 72 8 0 -24
34 -41 80 -41 40 0 51 -4 60 -21 14 -24 35 -12 44 26 5 19 13 25 36 25 42 0
81 17 115 50 21 21 39 29 59 27 26 -2 30 2 37 34 5 20 22 71 39 113 16 42 30
93 30 114 0 50 -40 132 -87 179 -119 119 -259 100 -431 -61 -45 -42 -87 -76
-93 -76 -6 0 -29 18 -51 40 -91 91 -218 118 -325 71 -28 -13 -57 -20 -63 -16
-7 5 -9 25 -4 62 7 56 7 56 -17 48 -13 -4 -40 -9 -59 -12 -33 -4 -37 -1 -64
41 -24 39 -34 46 -60 46 l-32 0 4 71 4 72 -30 -6 c-22 -4 -34 -1 -47 12 -23
26 -9 32 91 40 92 7 100 12 137 80 31 60 51 66 46 14 l-4 -40 39 9 c50 11 66
24 66 54 0 29 -31 47 -65 38 -24 -6 -25 -4 -25 35 0 23 -9 55 -20 73 -25 41
-25 71 -3 109 14 24 15 33 5 49 -6 11 -12 24 -12 28 0 15 117 82 170 98 55 16
70 35 70 89 0 35 -2 37 -25 31 -70 -18 -143 -53 -202 -97 -46 -35 -69 -47 -80
-41 -8 5 -36 7 -63 4 -26 -2 -57 1 -69 7 -30 17 -74 -12 -147 -95 -31 -35 -60
-64 -65 -64 -23 0 -6 50 25 78 37 32 32 42 -19 42 -13 0 -26 4 -29 9 -6 8 34
65 59 84 6 5 -14 29 -50 62 l-59 54 33 33 c48 47 58 78 30 99 -16 12 -20 23
-17 42 4 22 2 25 -11 17 -9 -4 -25 -18 -35 -29 -52 -58 -113 26 -71 99 22 39
19 43 -39 36 -50 -7 -55 -5 -102 30 -57 43 -64 52 -57 71 6 16 -20 17 -48 3
-32 -18 -39 -2 -18 35 25 42 26 42 -106 15 -53 -11 -101 -20 -106 -20 -5 0
-18 18 -29 40 -11 22 -25 40 -31 40 -6 0 -25 -11 -41 -26 -20 -16 -40 -24 -57
-22 -25 3 -26 5 -26 73 0 39 4 94 8 123 16 110 -45 4 -67 -116 l-12 -67 -55
-2 c-30 -1 -73 -8 -96 -17 -42 -15 -42 -15 -62 12 -19 26 -20 26 -21 5 0 -12
-15 -39 -34 -59 -34 -37 -35 -37 -74 -26 -52 16 -52 16 -52 -10 0 -13 -9 -34
-19 -47 -18 -24 -19 -24 -46 -7 -28 19 -55 15 -55 -7 0 -23 -40 -98 -56 -104
-8 -3 -23 2 -33 11 -23 21 -26 20 -65 -9 -18 -14 -36 -22 -39 -18 -16 16 -4
44 30 70 l36 28 -39 11 c-21 6 -40 17 -42 25 -1 8 13 30 32 48 l34 33 -55 52
-56 52 37 48 c41 54 45 76 15 94 -16 10 -19 19 -14 39 l6 25 -42 -31 c-24 -17
-49 -31 -56 -31 -8 0 -21 17 -29 37 -14 33 -14 40 0 70 20 42 21 67 2 60 -58
-22 -83 -19 -140 19 -42 29 -56 44 -56 62 0 25 -12 26 -64 6 -21 -8 -21 15 0
44 9 13 13 26 10 29 -3 4 -55 -3 -114 -15 -60 -12 -111 -22 -115 -22 -3 0 -15
20 -26 45 -11 25 -24 45 -28 45 -5 0 -24 -13 -43 -30 -19 -16 -46 -29 -59 -30
l-24 0 6 125 c4 69 5 125 3 125 -1 0 -10 -8 -19 -18z m-321 -1584 c26 -29 96
-132 118 -176 27 -51 7 -97 -91 -208 l-83 -95 0 -62 c0 -83 -10 -137 -25 -137
-9 0 -9 20 1 87 7 48 11 89 9 91 -2 2 -25 -28 -50 -66 -26 -39 -53 -73 -61
-76 -24 -9 -224 -30 -230 -23 -3 3 0 23 7 44 16 51 208 475 220 488 17 17 9
37 -36 89 -25 29 -45 56 -45 59 0 2 55 6 123 6 116 2 124 1 143 -21z m2796
-195 c11 -10 18 -11 23 -4 10 17 62 13 69 -5 5 -13 9 -14 21 -4 17 14 55 4 55
-15 0 -7 3 -20 6 -29 5 -12 -3 -14 -48 -10 -29 2 -88 6 -131 10 l-77 6 21 38
c22 39 29 40 61 13z m-4182 -97 c124 -21 231 -44 239 -51 10 -10 12 -26 7 -60
l-7 -47 -52 7 c-29 4 -131 20 -227 36 -290 48 -416 49 -434 3 -4 -10 -25 -14
-77 -14 -57 0 -77 -4 -101 -22 -44 -31 -83 -98 -118 -204 -33 -99 -49 -113
-84 -78 -17 16 -21 8 -7 -14 5 -8 21 -12 41 -10 32 3 34 6 67 98 59 169 104
213 219 218 42 3 80 0 86 -6 6 -6 -5 -33 -33 -78 -93 -151 -138 -273 -179
-478 -36 -181 -58 -213 -136 -204 -34 4 -33 -3 -20 226 l8 142 -25 0 c-32 0
-37 -15 -37 -104 0 -144 -12 -255 -26 -249 -29 11 -36 74 -26 223 5 80 9 146
8 146 0 1 -93 9 -206 18 -113 10 -216 20 -228 23 -40 10 -6 20 87 28 47 3 142
15 211 26 118 18 127 21 154 52 15 17 34 46 42 62 7 17 22 41 34 55 l20 25 0
-25 c0 -21 5 -17 29 26 39 67 124 159 175 189 86 50 219 85 311 81 33 -1 161
-20 285 -40z m4166 -15 c-7 -11 -83 -51 -96 -51 -14 0 -12 34 2 48 14 14 102
17 94 3z m-4382 -126 c54 -7 101 -16 104 -19 3 -3 -13 -142 -36 -308 -69 -504
-93 -842 -113 -1591 -5 -221 -13 -433 -17 -472 -7 -70 -7 -70 -44 -82 -96 -31
-409 -61 -685 -65 -166 -3 -172 -2 -195 20 -22 20 -34 22 -139 22 -271 0 -639
38 -824 85 l-90 23 -22 -21 -22 -20 -113 43 c-62 23 -121 51 -132 60 -18 17
-18 27 -7 191 13 195 15 213 33 319 l13 76 23 -26 c16 -17 22 -20 18 -7 -3 9
-3 17 0 17 10 0 169 -119 193 -144 29 -31 23 -53 -29 -100 -44 -40 -73 -45
-105 -18 -11 9 -8 5 7 -10 37 -37 54 -35 107 11 l44 39 31 -18 c98 -57 224
-84 479 -101 198 -12 335 -2 452 35 42 13 84 22 93 18 12 -4 10 2 -7 26 -25
36 -41 41 -41 13 0 -24 -89 -56 -205 -72 -135 -19 -491 6 -638 46 -98 26 -166
69 -144 92 4 3 55 -4 114 -16 241 -47 314 -54 563 -48 129 3 251 10 270 15 35
10 35 10 -15 11 -27 0 -106 -4 -175 -9 -195 -16 -479 8 -682 56 -49 12 -77 25
-103 49 -31 30 -35 40 -41 105 -4 39 -11 73 -15 76 -5 2 -6 -25 -2 -62 4 -41
2 -65 -3 -63 -16 6 -202 163 -207 174 -2 6 -2 27 1 47 l4 37 27 -19 c113 -83
453 -124 1041 -124 l395 -1 280 48 c154 27 310 51 348 54 58 5 68 9 71 27 3
11 10 111 16 221 15 279 74 853 119 1169 6 38 8 73 5 78 -3 4 -48 8 -100 8
l-95 0 26 37 c14 21 25 48 25 60 0 28 6 28 144 8z m1736 -80 c52 -9 113 -20
135 -24 31 -5 9 -9 -90 -14 -144 -8 -148 -9 -159 -77 -4 -28 -11 -40 -22 -40
-14 0 -16 8 -10 46 3 26 6 66 6 91 0 40 2 43 23 39 12 -3 65 -12 117 -21z
m1943 -52 c3 -5 8 -68 12 -140 l7 -133 -60 0 c-50 0 -61 3 -64 17 -3 16 -17
18 -150 14 l-146 -3 -4 29 c-2 22 -9 29 -29 31 -31 4 -39 29 -39 118 l0 54 38
1 c20 1 96 5 167 8 193 11 263 12 268 4z m311 -23 l29 0 -7 -105 c-12 -181
-30 -244 -68 -230 -17 7 -23 49 -34 248 l-7 117 29 -15 c16 -8 42 -15 58 -15z
m-1771 -6 c126 -20 134 -33 22 -35 -106 -2 -118 -7 -131 -59 -6 -25 -14 -44
-18 -43 -3 1 -11 3 -16 5 -5 2 -6 37 -3 81 4 55 10 77 18 73 7 -2 64 -12 128
-22z m-2275 -131 c-10 -75 -19 -137 -20 -138 -2 -1 -63 3 -135 8 -98 8 -133
14 -133 23 0 22 49 146 76 191 26 46 32 47 169 51 l61 2 -18 -137z m3192 57
l0 -80 -32 0 c-18 0 -63 -3 -99 -6 l-67 -7 -16 71 c-9 39 -16 75 -16 81 0 15
26 19 133 20 l97 1 0 -80z m691 24 l36 -6 7 -115 c4 -64 5 -118 2 -120 -3 -3
-28 9 -56 27 -49 31 -50 33 -50 80 0 26 -3 68 -6 94 -7 51 -6 52 67 40z
m-1251 -29 c0 -6 -9 -20 -20 -30 -20 -18 -20 -17 -20 12 0 16 3 32 6 36 9 9
34 -4 34 -18z m-1330 -86 c41 -5 201 -25 355 -44 154 -19 332 -42 395 -50 63
-8 185 -24 270 -34 686 -84 1468 -183 1480 -188 8 -2 46 -7 85 -10 38 -2 75
-9 81 -14 6 -5 13 -6 16 -3 7 6 202 -16 216 -25 5 -3 15 -117 22 -253 12 -246
12 -247 -9 -282 l-22 -35 30 -27 c17 -15 29 -30 26 -33 -2 -4 -9 -99 -15 -211
-6 -115 -15 -210 -22 -217 -16 -20 -155 -61 -265 -78 -54 -8 -126 -20 -159
-25 -34 -6 -66 -10 -72 -10 -6 0 -11 58 -14 153 -4 125 -8 162 -26 206 -28 71
-62 120 -88 127 -89 23 -170 -155 -181 -399 l-6 -127 -36 -9 c-20 -5 -51 -12
-68 -15 l-33 -5 -2 132 -2 132 -3 -132 -4 -132 -32 -6 c-107 -18 -334 -55
-343 -55 -9 0 -11 95 -9 353 l3 352 -8 -349 c-5 -191 -12 -352 -17 -356 -4 -4
-98 -22 -208 -39 -110 -17 -208 -33 -217 -35 -17 -4 -18 10 -18 188 0 106 3
308 7 449 l6 257 224 0 c158 0 223 -3 223 -11 0 -8 4 -8 14 0 9 8 89 11 255
11 l241 -1 0 -231 c0 -127 2 -229 5 -227 2 3 5 107 6 232 l1 228 219 -3 c141
-2 219 1 219 7 0 6 -94 10 -262 10 -145 0 -858 1 -1585 3 l-1323 2 0 23 c0 15
30 60 77 118 140 172 282 369 349 487 98 170 125 212 138 212 6 0 45 -5 86
-11z m-2947 -115 c51 -4 83 -11 93 -22 15 -14 16 -52 12 -351 -4 -259 -8 -336
-18 -339 -7 -3 -20 -13 -28 -23 -13 -15 -31 -19 -92 -19 -85 0 -193 -21 -241
-45 l-32 -17 7 40 c3 22 10 82 16 134 8 80 57 452 76 588 9 64 18 71 78 65 28
-3 86 -7 129 -11z m1957 -442 c0 -4 -8 -15 -17 -23 -25 -22 -46 -50 -62 -82
-8 -15 -16 -25 -18 -23 -5 4 43 103 59 124 11 13 38 17 38 4z m60 4 c0 -2 -9
-6 -20 -9 -11 -3 -18 -1 -14 4 5 9 34 13 34 5z m127 -88 c-3 -8 -6 -5 -6 6 -1
11 2 17 5 13 3 -3 4 -12 1 -19z m-1387 -8 c0 -5 -7 -10 -16 -10 -8 0 -12 5 -9
10 3 6 10 10 16 10 5 0 9 -4 9 -10z m1081 -107 c-12 -20 -14 -14 -5 12 4 9 9
14 11 11 3 -2 0 -13 -6 -23z m-916 -53 c-3 -5 -14 -10 -23 -9 -14 0 -13 2 3 9
27 11 27 11 20 0z m1345 -200 c0 -179 -1 -190 -19 -190 -10 0 -24 7 -31 15
-14 17 -40 20 -40 6 0 -5 -16 -15 -35 -22 -43 -16 -46 -39 -5 -39 23 0 30 -4
30 -20 0 -11 4 -20 9 -20 4 0 20 9 34 20 57 45 57 42 56 -212 -1 -128 -5 -307
-8 -398 l-6 -165 -45 -7 c-191 -32 -535 -86 -537 -85 -1 2 2 72 7 157 5 85 12
273 15 418 l7 263 32 24 c17 13 101 77 186 142 85 65 195 159 245 209 49 50
93 92 98 92 4 1 7 -83 7 -188z m360 83 l0 -78 62 5 63 5 -58 3 -58 3 3 67 3
67 368 3 367 2 0 -65 c0 -45 -4 -65 -12 -65 -10 0 -10 -2 -1 -8 9 -6 13 -66
16 -222 2 -202 3 -198 5 73 l2 287 55 0 55 0 2 -112 2 -113 3 113 4 112 270 0
270 0 -7 -447 c-4 -247 -8 -449 -9 -451 -2 -2 -266 -45 -520 -85 -104 -17
-166 -28 -177 -32 -10 -4 -13 30 -13 172 0 201 -11 257 -70 380 -57 116 -147
174 -243 157 -97 -17 -188 -118 -252 -277 -42 -106 -57 -184 -70 -362 -6 -88
-13 -161 -14 -162 -1 -1 -78 -16 -171 -33 -94 -17 -179 -33 -190 -35 -20 -4
-20 0 -17 573 2 317 5 583 7 590 3 9 45 12 165 12 l160 0 0 -77z m-2082 -20
c-10 -2 -26 -2 -35 0 -10 3 -2 5 17 5 19 0 27 -2 18 -5z m816 -73 c76 -6 145
-14 155 -20 12 -7 7 -9 -23 -10 -76 0 -321 23 -330 31 -13 12 26 11 198 -1z
m-1858 -47 c-10 -11 -36 -12 -36 -2 0 5 10 9 22 9 12 0 18 -3 14 -7z m1119
-13 c3 -6 -1 -7 -9 -4 -18 7 -21 14 -7 14 6 0 13 -4 16 -10z m-45 -36 c0 -2
-9 -4 -20 -4 -11 0 -20 4 -20 9 0 5 9 7 20 4 11 -3 20 -7 20 -9z m120 6 c13
-8 13 -10 -2 -10 -9 0 -20 5 -23 10 -8 13 5 13 25 0z m803 -2 c-2 -5 -136 -7
-296 -6 -220 2 -261 4 -167 8 171 8 469 7 463 -2z m-600 -5 c-7 -2 -19 -2 -25
0 -7 3 -2 5 12 5 14 0 19 -2 13 -5z m4332 -169 c17 -33 20 -59 20 -169 0 -116
-3 -135 -23 -178 -25 -50 -60 -69 -87 -47 -19 16 -48 94 -43 116 4 16 7 14 17
-10 9 -23 14 -27 24 -17 9 9 8 18 -4 39 -8 15 -19 26 -24 24 -6 -2 -13 7 -17
20 -13 47 -8 77 16 100 25 24 43 78 27 78 -6 0 -17 -12 -26 -27 l-15 -28 6 40
c9 56 20 81 44 105 19 19 24 20 43 7 12 -7 31 -31 42 -53z m-2195 -159 c16
-15 41 -55 57 -88 27 -59 28 -69 28 -207 0 -114 -4 -156 -18 -197 -35 -99
-108 -173 -171 -173 -42 0 -107 70 -136 145 -31 80 -34 279 -6 365 24 73 73
148 110 172 42 26 99 18 136 -17z m-3350 -771 c17 -36 30 -67 28 -69 -7 -7
-261 -35 -267 -29 -3 2 22 32 55 65 55 56 114 98 140 99 6 0 26 -30 44 -66z"/>
<path d="M2808 2453 c7 -3 16 -2 19 1 4 3 -2 6 -13 5 -11 0 -14 -3 -6 -6z"/>
<path d="M2146 2259 c-15 -50 -25 -93 -22 -96 6 -6 5 -9 35 101 31 109 20 106
-13 -5z"/>
<path d="M2715 2340 c-130 -6 -150 -10 -268 -49 -71 -24 -126 -45 -123 -48 3
-3 19 0 37 6 18 6 47 11 65 11 19 0 34 5 34 11 0 5 4 7 10 4 5 -3 45 -1 87 6
121 18 183 25 183 21 0 -11 -28 -53 -65 -97 -55 -66 -63 -80 -39 -67 29 16 67
55 119 121 26 34 54 61 62 61 10 0 11 -5 4 -17 -17 -32 -124 -145 -174 -185
-27 -21 -45 -38 -40 -38 22 1 95 64 167 147 80 90 114 113 173 113 20 0 22 -5
26 -72 l3 -73 2 78 2 77 -62 -2 c-35 -1 -126 -4 -203 -8z"/>
<path d="M2652 2269 c-18 -3 -34 -8 -36 -10 -2 -2 -6 -29 -10 -59 l-7 -55 26
30 c31 37 69 95 64 99 -2 1 -19 -1 -37 -5z"/>
<path d="M2510 2219 c0 -43 -12 -89 -23 -89 -6 0 -7 17 -4 45 5 36 4 45 -8 45
-11 0 -15 -12 -15 -48 0 -57 3 -61 34 -55 21 4 25 11 28 55 1 27 0 55 -4 61
-5 7 -8 1 -8 -14z"/>
<path d="M940 2211 c0 -10 52 -51 65 -51 11 0 -5 19 -35 40 -17 12 -30 17 -30
11z"/>
<path d="M2419 2209 c0 -2 -2 -34 -4 -71 -2 -48 0 -65 8 -62 12 4 14 120 3
131 -3 4 -6 4 -7 2z"/>
<path d="M2358 2189 c-25 -9 -26 -14 -24 -62 2 -37 7 -53 18 -55 23 -4 38 21
45 77 6 54 4 55 -39 40z m8 -85 c-4 -13 -10 -24 -14 -24 -9 0 -5 54 6 80 8 22
15 -26 8 -56z"/>
<path d="M830 2182 c0 -15 96 -93 104 -85 6 7 -18 30 -76 74 -16 11 -28 16
-28 11z"/>
<path d="M2195 2134 c-96 -37 -92 -29 -40 -74 45 -39 75 -51 75 -30 0 6 -7 10
-15 10 -8 0 -15 7 -15 15 0 8 5 15 10 15 6 0 10 7 10 16 0 13 6 10 26 -11 14
-15 27 -26 28 -24 8 8 -19 99 -29 98 -5 0 -28 -7 -50 -15z m5 -44 c0 -23 -4
-24 -32 -9 -17 9 -18 13 -7 20 23 15 39 10 39 -11z"/>
<path d="M2964 2030 c0 -69 1 -97 3 -62 2 34 2 90 0 125 -2 34 -3 6 -3 -63z"/>
<path d="M835 2110 c3 -5 8 -10 11 -10 2 0 4 5 4 10 0 6 -5 10 -11 10 -5 0 -7
-4 -4 -10z"/>
<path d="M782 1943 c-1 -50 1 -94 6 -96 4 -3 6 25 4 61 -5 116 -9 130 -10 35z"/>
<path d="M830 1922 c0 -25 7 -45 18 -55 25 -23 32 -21 32 6 0 21 -34 87 -45
87 -3 0 -5 -17 -5 -38z"/>
<path d="M2525 1844 c-38 -19 -88 -53 -110 -77 l-40 -42 55 -8 c53 -8 175 -6
184 3 2 3 7 40 11 83 9 93 6 94 -100 41z m65 -59 c0 -12 -10 -31 -23 -43 l-23
-22 -22 20 c-22 21 -31 70 -12 70 6 0 10 -13 10 -29 0 -17 5 -33 12 -37 8 -5
10 4 6 34 -7 49 -3 54 28 40 15 -7 24 -20 24 -33z"/>
<path d="M2328 1835 c-51 -35 -172 -195 -136 -179 7 3 38 39 68 79 30 41 71
86 90 100 45 32 26 33 -22 0z"/>
<path d="M2673 1805 c0 -22 2 -30 4 -17 2 12 2 30 0 40 -3 9 -5 -1 -4 -23z"/>
<path d="M2953 1740 c0 -36 2 -50 4 -32 2 17 2 47 0 65 -2 17 -4 3 -4 -33z"/>
<path d="M2503 1653 c15 -2 39 -2 55 0 15 2 2 4 -28 4 -30 0 -43 -2 -27 -4z"/>
<path d="M2378 1643 c18 -2 45 -2 60 0 15 2 0 4 -33 4 -33 0 -45 -2 -27 -4z"/>
<path d="M6834 3190 c0 -135 2 -190 3 -122 2 67 2 177 0 245 -1 67 -3 12 -3
-123z"/>
<path d="M6990 3170 l0 -230 -25 0 c-18 0 -25 -5 -25 -20 0 -14 7 -20 24 -20
13 0 27 -6 29 -12 3 -7 6 105 6 250 1 144 -1 262 -4 262 -3 0 -5 -103 -5 -230z"/>
<path d="M7080 2710 l0 -193 38 7 c20 3 47 6 58 6 21 0 22 6 29 127 6 108 5
134 -11 180 -16 45 -22 53 -44 53 -14 0 -35 3 -47 6 l-23 6 0 -192z"/>
<path d="M6834 2550 c0 -162 2 -229 3 -147 2 81 2 213 0 295 -1 81 -3 14 -3
-148z"/>
<path d="M6709 2781 c-13 -11 -22 -22 -19 -24 10 -10 60 6 60 19 0 22 -17 25
-41 5z"/>
<path d="M7133 2512 c-45 -3 -53 -6 -53 -23 0 -16 7 -19 50 -19 35 0 52 4 56
15 10 25 0 30 -53 27z"/>
<path d="M6080 2463 c0 -23 5 -33 15 -33 10 0 15 10 15 33 0 23 -5 34 -15 34
-10 0 -15 -11 -15 -34z"/>
<path d="M5660 2441 c0 -11 -3 -26 -6 -35 -4 -12 0 -16 15 -16 17 0 21 6 21
35 0 24 -5 35 -15 35 -8 0 -15 -9 -15 -19z"/>
<path d="M6993 2365 c0 -44 2 -61 4 -37 2 23 2 59 0 80 -2 20 -4 1 -4 -43z"/>
<path d="M4004 2430 c0 -168 2 -236 3 -152 2 83 2 221 0 305 -1 83 -3 15 -3
-153z"/>
<path d="M4047 2714 c-4 -4 -7 -20 -7 -36 0 -26 3 -28 38 -28 46 0 76 19 70
46 -2 15 -13 20 -48 22 -25 2 -49 0 -53 -4z"/>
<path d="M5147 2424 c-4 -4 -7 -27 -7 -51 0 -41 1 -43 31 -43 30 0 30 1 27 48
-2 38 -7 48 -23 50 -12 2 -24 0 -28 -4z m43 -43 c0 -16 -6 -31 -15 -35 -12 -4
-15 3 -15 29 0 24 5 35 15 35 10 0 15 -10 15 -29z"/>
<path d="M4864 2095 c0 -77 2 -107 3 -67 2 40 2 103 0 140 -2 37 -3 4 -3 -73z"/>
<path d="M3993 1970 c0 -47 2 -66 4 -42 2 23 2 61 0 85 -2 23 -4 4 -4 -43z"/>
<path d="M6533 2503 c-24 -9 -13 -21 22 -25 19 -2 35 -1 35 4 0 7 -34 29 -42
27 -2 0 -9 -3 -15 -6z"/>
<path d="M6540 2371 c-5 -11 -10 -42 -10 -70 0 -41 4 -52 21 -62 17 -9 23 -8
30 2 10 16 12 110 3 133 -8 22 -31 20 -44 -3z"/>
<path d="M6558 2148 c-16 -5 -28 -14 -28 -19 0 -16 26 -10 45 11 10 11 16 20
14 19 -2 0 -16 -5 -31 -11z"/>
<path d="M4307 2303 c-4 -3 -7 -15 -7 -26 0 -17 5 -19 40 -14 34 4 46 1 73
-21 l32 -27 -16 25 c-30 47 -102 84 -122 63z"/>
<path d="M4200 2168 c-27 -60 -26 -88 3 -88 20 0 26 9 41 56 15 47 16 58 4 65
-22 15 -28 10 -48 -33z"/>
<path d="M4336 2129 c-33 -26 -49 -80 -44 -147 4 -45 10 -60 33 -79 31 -27 42
-26 67 8 27 36 33 107 14 171 -18 64 -34 75 -70 47z"/>
<path d="M4184 1915 c-3 -8 0 -34 7 -57 12 -35 19 -44 42 -46 32 -4 32 -4 10
65 -12 39 -22 53 -35 53 -10 0 -21 -7 -24 -15z"/>
<path d="M4403 1793 c-27 -29 -38 -35 -63 -31 -27 4 -31 2 -28 -16 6 -39 42
-31 87 20 22 26 41 51 41 55 0 13 -2 12 -37 -28z"/>
<path d="M6405 6111 c-6 -11 9 -23 19 -14 9 9 7 23 -3 23 -6 0 -12 -4 -16 -9z"/>
<path d="M3640 6096 c0 -15 64 -76 80 -76 18 0 11 12 -30 51 -44 43 -50 46
-50 25z"/>
<path d="M2280 6045 c0 -10 7 -15 18 -13 21 4 19 22 -2 26 -10 2 -16 -3 -16
-13z"/>
<path d="M4441 5986 c-8 -9 -11 -19 -7 -23 9 -9 29 13 24 27 -2 8 -8 7 -17 -4z"/>
<path d="M3336 5971 c-9 -14 21 -33 45 -29 22 3 22 4 5 21 -19 18 -42 22 -50
8z"/>
<path d="M3783 5943 c-18 -7 -16 -38 3 -54 14 -11 19 -10 35 10 28 34 3 61
-38 44z"/>
<path d="M5530 5919 c0 -5 5 -7 10 -4 6 3 10 8 10 11 0 2 -4 4 -10 4 -5 0 -10
-5 -10 -11z"/>
<path d="M5714 5889 c-10 -12 -37 -30 -59 -42 -25 -12 -35 -22 -26 -25 20 -7
78 26 97 55 20 32 13 39 -12 12z"/>
<path d="M3370 5785 c0 -10 7 -15 18 -13 21 4 19 22 -2 26 -10 2 -16 -3 -16
-13z"/>
<path d="M3273 5743 c-26 -10 -12 -34 30 -53 73 -34 118 -23 84 21 -25 33 -77
47 -114 32z"/>
<path d="M2280 5720 c0 -5 9 -10 21 -10 11 0 17 5 14 10 -3 6 -13 10 -21 10
-8 0 -14 -4 -14 -10z"/>
<path d="M7206 5691 c-24 -27 -34 -91 -13 -91 16 0 50 48 62 88 5 17 2 22 -13
22 -10 0 -27 -8 -36 -19z"/>
<path d="M7090 5609 c-6 -11 -10 -25 -8 -31 5 -14 38 19 38 38 0 21 -18 17
-30 -7z"/>
<path d="M7105 5400 c-3 -5 -1 -10 4 -10 6 0 11 5 11 10 0 6 -2 10 -4 10 -3 0
-8 -4 -11 -10z"/>
<path d="M2736 5309 c-30 -24 -34 -59 -8 -82 25 -22 44 -21 76 4 37 29 32 68
-11 85 -28 12 -34 11 -57 -7z"/>
<path d="M7727 5202 c-19 -20 -23 -37 -7 -27 10 6 33 45 27 45 -2 0 -11 -8
-20 -18z"/>
<path d="M1021 5160 c-21 -12 -5 -42 21 -38 12 2 23 8 25 15 6 16 -30 34 -46
23z"/>
<path d="M8129 5088 c-42 -45 -46 -89 -13 -123 26 -26 69 -18 108 19 41 38 45
62 15 100 -27 34 -79 36 -110 4z"/>
<path d="M8185 4823 c-41 -9 -67 -28 -86 -65 -37 -72 -22 -88 100 -117 121
-29 137 -27 177 13 38 38 44 77 19 126 -19 36 -56 47 -103 30 -30 -11 -36 -10
-44 4 -9 16 -23 18 -63 9z"/>
<path d="M4330 4807 c0 -12 40 -93 55 -112 13 -17 32 -21 108 -26 51 -3 102
-1 115 3 25 9 39 35 26 48 -17 16 -304 98 -304 87z"/>
<path d="M5145 4700 c11 -5 27 -9 35 -9 9 0 8 4 -5 9 -11 5 -27 9 -35 9 -9 0
-8 -4 5 -9z"/>
<path d="M5355 4640 c27 -12 43 -12 25 0 -8 5 -22 9 -30 9 -10 0 -8 -3 5 -9z"/>
<path d="M5448 4613 c7 -3 16 -2 19 1 4 3 -2 6 -13 5 -11 0 -14 -3 -6 -6z"/>
<path d="M5525 4590 c11 -5 27 -9 35 -9 9 0 8 4 -5 9 -11 5 -27 9 -35 9 -9 0
-8 -4 5 -9z"/>
<path d="M8490 4581 c-17 -32 -12 -40 35 -63 44 -21 46 -21 63 -4 16 17 16 19
-2 29 -11 7 -30 22 -42 35 -26 27 -40 28 -54 3z"/>
<path d="M7947 4573 c-11 -3 -16 -10 -13 -20 3 -8 6 -17 6 -19 0 -11 67 -2 85
12 17 13 18 16 5 24 -16 10 -51 11 -83 3z"/>
<path d="M5630 4560 c8 -5 22 -9 30 -9 10 0 8 3 -5 9 -27 12 -43 12 -25 0z"/>
<path d="M5735 4530 c27 -12 43 -12 25 0 -8 5 -22 9 -30 9 -10 0 -8 -3 5 -9z"/>
<path d="M5835 4500 c27 -12 43 -12 25 0 -8 5 -22 9 -30 9 -10 0 -8 -3 5 -9z"/>
<path d="M5935 4470 c27 -12 43 -12 25 0 -8 5 -22 9 -30 9 -10 0 -8 -3 5 -9z"/>
<path d="M6028 4443 c7 -3 16 -2 19 1 4 3 -2 6 -13 5 -11 0 -14 -3 -6 -6z"/>
<path d="M6110 4420 c8 -5 22 -9 30 -9 10 0 8 3 -5 9 -27 12 -43 12 -25 0z"/>
<path d="M6205 4390 c11 -5 27 -9 35 -9 9 0 8 4 -5 9 -11 5 -27 9 -35 9 -9 0
-8 -4 5 -9z"/>
<path d="M8096 4338 c-22 -24 -46 -42 -53 -40 -18 4 -16 -27 2 -34 8 -4 15
-14 15 -25 0 -30 42 -69 81 -75 45 -8 101 17 125 54 11 16 18 47 18 77 1 80
-3 85 -80 85 -66 0 -68 -1 -108 -42z"/>
<path d="M6305 4361 c11 -4 36 -11 55 -15 24 -4 29 -3 15 3 -11 4 -36 11 -55
15 -24 4 -29 3 -15 -3z"/>
<path d="M6464 4314 c38 -13 71 -22 73 -20 5 5 -116 46 -131 45 -6 0 20 -11
58 -25z"/>
<path d="M8348 4266 c-21 -48 20 -77 56 -40 19 19 20 36 4 52 -20 20 -48 14
-60 -12z"/>
<path d="M7905 4190 c-3 -5 1 -10 9 -10 9 0 16 5 16 10 0 6 -4 10 -9 10 -6 0
-13 -4 -16 -10z"/>
<path d="M7767 4183 c-18 -17 -5 -33 26 -33 38 0 48 6 40 26 -5 14 -54 20 -66
7z"/>
<path d="M7981 4123 c-27 -34 -9 -46 22 -14 15 15 18 24 10 32 -7 7 -17 3 -32
-18z"/>
<path d="M3683 4110 c-13 -5 -23 -12 -23 -15 0 -4 10 -3 23 1 12 4 63 7 112 7
82 -1 85 0 35 7 -74 11 -120 11 -147 0z"/>
<path d="M7826 4113 c-11 -11 -6 -23 9 -23 8 0 15 4 15 9 0 13 -16 22 -24 14z"/>
<path d="M7846 4021 c-10 -16 6 -42 23 -39 9 2 17 13 19 26 3 16 -2 22 -17 22
-11 0 -22 -4 -25 -9z"/>
<path d="M1378 3943 c18 -2 45 -2 60 0 15 2 0 4 -33 4 -33 0 -45 -2 -27 -4z"/>
<path d="M1175 3899 c-33 -16 -52 -29 -42 -29 10 0 34 9 55 20 89 47 79 54
-13 9z"/>
<path d="M1088 3873 c7 -3 16 -2 19 1 4 3 -2 6 -13 5 -11 0 -14 -3 -6 -6z"/>
<path d="M8290 3155 c-7 -9 -10 -18 -7 -21 10 -11 37 5 37 21 0 19 -14 19 -30
0z"/>
<path d="M451 3039 c-27 -26 -19 -37 33 -46 35 -5 38 -4 34 17 -1 12 -12 29
-24 36 -18 12 -23 11 -43 -7z"/>
<path d="M7992 2684 c-26 -18 -38 -70 -22 -89 14 -17 53 -19 81 -5 13 7 19 21
19 44 0 49 -42 76 -78 50z"/>
<path d="M8630 2490 c-8 -5 -11 -12 -8 -16 11 -10 60 5 53 16 -8 12 -26 12
-45 0z"/>
<path d="M686 2473 c-11 -11 -6 -23 9 -23 8 0 15 4 15 9 0 13 -16 22 -24 14z"/>
<path d="M8800 2200 c0 -5 7 -10 15 -10 8 0 15 5 15 10 0 6 -7 10 -15 10 -8 0
-15 -4 -15 -10z"/>
<path d="M8725 2090 c-4 -6 -4 -24 0 -40 8 -35 38 -41 54 -12 18 34 -35 83
-54 52z"/>
<path d="M690 2019 c0 -5 5 -7 10 -4 6 3 10 8 10 11 0 2 -4 4 -10 4 -5 0 -10
-5 -10 -11z"/>
<path d="M7734 2001 c-40 -10 -54 -19 -54 -36 0 -31 104 -31 130 0 7 8 10 22
6 30 -6 16 -31 18 -82 6z"/>
<path d="M313 1878 c2 -7 10 -13 17 -13 7 0 15 6 18 13 2 7 -5 12 -18 12 -13
0 -20 -5 -17 -12z"/>
<path d="M7725 1879 c-4 -6 -5 -12 -2 -15 7 -7 37 7 37 17 0 13 -27 11 -35 -2z"/>
<path d="M452 1866 c1 -10 8 -17 13 -17 15 1 12 24 -3 29 -9 3 -13 -2 -10 -12z"/>
<path d="M8360 1790 c0 -11 7 -20 15 -20 8 0 15 9 15 20 0 11 -7 20 -15 20 -8
0 -15 -9 -15 -20z"/>
<path d="M7820 1751 c-19 -13 -9 -21 26 -24 20 -1 29 3 29 13 0 18 -34 24 -55
11z"/>
<path d="M474 1610 c-12 -5 -25 -14 -29 -20 -18 -29 73 -42 96 -14 11 14 10
18 -6 30 -21 16 -31 16 -61 4z"/>
<path d="M7427 1583 c-4 -3 -7 -17 -7 -30 0 -21 4 -24 27 -21 18 2 29 10 31
22 5 26 -33 48 -51 29z"/>
<path d="M7572 1503 c2 -13 11 -17 30 -15 14 2 29 -2 33 -7 8 -13 45 -15 45
-2 0 7 -86 41 -105 41 -4 0 -5 -8 -3 -17z"/>
<path d="M7782 1488 c3 -7 19 -18 36 -25 27 -11 32 -11 32 2 0 16 -30 35 -55
35 -9 0 -15 -5 -13 -12z"/>
<path d="M243 1375 c-65 -28 -28 -46 50 -24 39 11 47 23 21 33 -22 9 -35 7
-71 -9z"/>
<path d="M4718 1301 c-57 -57 -17 -118 53 -81 22 12 25 46 7 85 -14 32 -26 31
-60 -4z"/>
<path d="M4607 1263 c-13 -12 -7 -23 12 -23 26 0 35 16 15 24 -19 7 -19 7 -27
-1z"/>
<path d="M4572 1189 c2 -6 8 -10 13 -10 5 0 11 4 13 10 2 6 -4 11 -13 11 -9 0
-15 -5 -13 -11z"/>
<path d="M4456 1134 c-7 -19 2 -37 15 -29 12 8 12 45 0 45 -5 0 -12 -7 -15
-16z"/>
<path d="M7415 1047 c-23 -36 -39 -88 -29 -97 5 -5 23 20 41 56 24 47 28 64
18 64 -8 0 -21 -10 -30 -23z"/>
<path d="M4044 1037 c-27 -24 -27 -25 -12 -49 26 -39 66 -45 97 -14 21 22 24
30 15 53 -13 39 -61 43 -100 10z"/>
<path d="M4784 1020 c-21 -8 -54 -46 -54 -62 0 -17 38 -7 64 17 38 36 33 61
-10 45z"/>
<path d="M4707 682 c-41 -42 -45 -52 -21 -52 17 0 84 64 84 81 0 20 -28 7 -63
-29z"/>
<path d="M3420 661 c0 -11 14 -31 31 -45 31 -27 63 -33 88 -17 21 13 -2 39
-54 62 -51 24 -65 24 -65 0z"/>
<path d="M3400 560 c0 -5 9 -10 20 -10 11 0 20 5 20 10 0 6 -9 10 -20 10 -11
0 -20 -4 -20 -10z"/>
<path d="M6057 544 c-10 -11 -8 -54 2 -54 14 0 25 40 14 51 -5 5 -12 6 -16 3z"/>
<path d="M4480 521 c0 -10 24 -21 47 -21 13 0 13 3 3 15 -13 16 -50 21 -50 6z"/>
<path d="M2964 485 c-7 -17 12 -45 31 -45 7 0 18 7 25 15 10 12 10 18 0 30
-16 19 -49 19 -56 0z"/>
<path d="M2335 480 c-3 -5 -2 -10 4 -10 5 0 13 5 16 10 3 6 2 10 -4 10 -5 0
-13 -4 -16 -10z"/>
<path d="M1250 451 c-16 -30 -12 -36 10 -16 21 19 26 35 10 35 -5 0 -14 -9
-20 -19z"/>
<path d="M5965 436 c-9 -44 2 -78 23 -74 26 5 37 55 18 83 -22 34 -34 31 -41
-9z"/>
<path d="M1147 449 c-19 -11 -47 -60 -47 -83 0 -18 33 -10 54 13 18 20 33 81
20 81 -5 0 -17 -5 -27 -11z"/>
<path d="M6895 440 c-4 -6 -3 -16 3 -22 6 -6 12 -6 17 2 4 6 3 16 -3 22 -6 6
-12 6 -17 -2z"/>
<path d="M3390 402 c0 -12 34 -42 48 -42 18 0 14 37 -4 44 -22 9 -44 7 -44 -2z"/>
<path d="M3050 357 c0 -9 80 -90 85 -86 8 9 -56 89 -71 89 -8 0 -14 -1 -14 -3z"/>
<path d="M3220 214 c0 -24 19 -54 35 -54 19 0 19 20 -1 48 -18 26 -34 29 -34
6z"/>
<path d="M4460 185 c0 -17 2 -18 24 -9 23 9 20 24 -4 24 -11 0 -20 -7 -20 -15z"/>
<path d="M4327 132 c-32 -35 -16 -73 22 -53 22 12 33 35 25 56 -8 20 -27 19
-47 -3z"/>
<path d="M3873 133 c-23 -9 -15 -35 10 -31 12 2 22 9 22 17 0 16 -14 22 -32
14z"/>
<path d="M2655 71 c-40 -18 -72 -47 -63 -57 7 -6 108 56 108 67 0 11 2 12 -45
-10z"/>
</g>
</svg>
