<?xml version="1.0" standalone="no"?>
<!DOCTYPE svg PUBLIC "-//W3C//DTD SVG 20010904//EN"
 "http://www.w3.org/TR/2001/REC-SVG-20010904/DTD/svg10.dtd">
<svg version="1.0" xmlns="http://www.w3.org/2000/svg"
 width="917.000000pt" height="672.000000pt" viewBox="0 0 917.000000 672.000000"
 preserveAspectRatio="xMidYMid meet">

<g transform="translate(0.000000,672.000000) scale(0.100000,-0.100000)"
fill="#000000" stroke="none">
<path d="M4830 6630 c0 -11 4 -20 9 -20 11 0 22 26 14 34 -12 12 -23 5 -23
-14z"/>
<path d="M4099 6389 c-60 -46 -74 -65 -38 -54 47 14 112 75 97 90 -2 3 -29
-14 -59 -36z"/>
<path d="M5637 6225 c-19 -14 -40 -82 -30 -98 7 -11 41 21 59 55 27 52 11 74
-29 43z"/>
<path d="M3497 6204 c-10 -10 4 -40 25 -53 24 -15 32 -9 23 18 -6 21 -38 45
-48 35z"/>
<path d="M2867 6194 c-14 -14 -7 -35 11 -32 9 2 17 10 17 17 0 16 -18 25 -28
15z"/>
<path d="M2420 6172 c-20 -7 -30 -23 -30 -50 0 -20 4 -23 28 -20 21 2 28 9 30
32 4 32 -6 46 -28 38z"/>
<path d="M5516 6135 c-15 -14 -24 -30 -20 -37 5 -7 15 -2 31 16 20 24 30 46
19 46 -1 0 -15 -11 -30 -25z"/>
<path d="M4984 6094 c-20 -30 -44 -116 -44 -156 0 -23 -8 -31 -47 -49 -26 -12
-65 -28 -87 -35 l-40 -15 -31 36 -30 36 -30 -56 c-29 -56 -31 -57 -65 -50 -69
13 -75 12 -78 -20 -6 -45 -29 -56 -68 -33 l-32 19 -7 -23 c-28 -97 -58 -124
-106 -95 -18 11 -24 8 -49 -20 -35 -39 -52 -41 -80 -11 -17 18 -19 30 -14 65
6 38 4 43 -17 47 -129 29 -162 36 -175 36 -19 0 -18 -29 2 -51 21 -23 11 -49
-19 -49 -20 0 -25 8 -36 51 -15 56 -26 64 -111 75 -43 6 -50 4 -50 -10 0 -9
14 -25 31 -34 60 -34 65 -38 50 -56 -7 -9 -32 -21 -54 -27 -41 -11 -42 -10
-76 27 l-34 37 -16 -23 c-43 -62 -77 -88 -131 -98 -50 -10 -127 -25 -190 -38
-17 -4 -55 8 -113 35 -99 47 -107 48 -107 22 0 -10 -16 -31 -35 -45 -45 -35
-46 -71 -5 -158 39 -82 38 -105 -7 -160 -20 -25 -41 -61 -47 -79 -10 -30 -15
-34 -45 -34 l-33 0 -24 90 c-12 50 -26 100 -29 112 -5 16 -2 22 13 25 18 3 19
6 8 38 -6 21 -19 36 -30 38 -18 4 -19 -1 -12 -119 5 -68 9 -140 9 -159 l2 -35
-70 -7 c-244 -25 -435 -53 -855 -128 -252 -45 -258 -46 -266 -26 -9 24 -27 19
-45 -12 -12 -20 -36 -34 -95 -56 -86 -31 -178 -75 -209 -100 -11 -9 10 -1 46
19 130 70 274 109 634 174 439 79 758 120 1000 128 224 7 355 -7 590 -62 33
-8 182 -42 330 -76 149 -34 344 -81 435 -105 90 -24 167 -44 170 -44 3 0 10
13 16 28 l11 29 89 -13 c325 -49 494 -91 1004 -250 553 -173 931 -319 938
-362 2 -11 9 -25 15 -30 17 -14 351 -112 406 -119 25 -3 67 -16 92 -29 l46
-23 11 -73 c21 -130 31 -249 36 -420 l5 -168 -31 0 -30 0 7 219 7 218 -27 62
-28 62 -37 -6 c-31 -5 -45 -1 -81 24 -36 25 -107 47 -394 121 -403 105 -898
233 -1000 260 -38 10 -263 69 -500 130 -421 110 -433 113 -560 117 -176 6
-181 8 -233 96 -23 39 -50 93 -60 119 -20 57 -38 67 -54 32 -15 -32 -5 -33
-308 36 -306 70 -437 92 -460 80 -57 -30 -107 -141 -151 -332 -29 -124 -69
-329 -69 -354 0 -13 7 -14 280 -54 423 -62 489 -74 517 -89 20 -12 233 -51
275 -51 15 0 28 -3 28 -7 -1 -21 -20 -32 -60 -35 l-45 -3 -12 -75 c-22 -133
-14 -124 -89 -116 -35 4 -79 9 -96 13 l-31 6 7 111 6 111 -35 -38 c-33 -36
-35 -42 -35 -108 l0 -71 -52 7 c-114 14 -108 9 -108 77 l0 60 65 -5 c36 -3 65
-1 65 4 0 5 -53 9 -119 9 -65 0 -145 3 -177 6 l-60 6 4 68 c4 59 2 69 -14 74
-11 3 -99 19 -198 36 -98 16 -206 37 -240 46 -88 24 -205 22 -299 -4 -90 -26
-97 -26 -97 -9 0 7 -15 28 -33 45 l-34 33 -96 -7 c-53 -4 -97 -10 -97 -14 0
-4 9 -19 20 -33 11 -14 20 -31 20 -39 1 -33 14 -38 80 -27 36 5 74 12 85 15
11 3 -3 -8 -32 -25 -29 -17 -68 -47 -88 -66 -38 -38 -98 -149 -109 -202 -7
-28 -14 -34 -59 -47 -67 -19 -162 -32 -367 -51 -460 -43 -780 -55 -896 -34
-65 12 -181 54 -202 74 -11 10 -11 15 2 28 14 14 14 16 -2 22 -9 3 -82 11
-162 18 -131 10 -149 9 -179 -6 -20 -10 -56 -17 -85 -16 -41 0 -46 2 -28 9 37
15 27 32 -15 25 -57 -10 -122 -45 -154 -84 -40 -49 -36 -58 8 -22 21 16 60 36
86 45 57 19 167 22 167 4 0 -6 -24 -43 -54 -82 -109 -144 -147 -228 -191 -428
-22 -99 -43 -128 -95 -128 -30 0 -43 6 -60 28 -20 25 -22 34 -15 117 3 50 8
105 11 123 2 17 -1 32 -6 32 -15 0 -12 39 11 126 25 98 70 183 125 239 90 93
183 117 460 119 131 0 206 5 215 12 8 6 21 14 29 17 10 4 8 6 -7 6 -12 1 -23
-4 -25 -11 -3 -8 -56 -11 -189 -9 -292 3 -404 -25 -506 -128 -90 -92 -136
-235 -148 -454 -8 -154 -1 -188 46 -212 60 -31 150 -12 176 38 8 17 26 72 39
121 44 168 85 251 175 351 30 33 67 76 82 94 l28 34 110 -8 c98 -6 113 -9 134
-31 13 -13 32 -24 41 -24 12 0 15 -6 10 -26 -4 -14 -2 -31 3 -38 6 -8 3 -45
-10 -111 -72 -366 -102 -564 -134 -870 -21 -203 -22 -205 -51 -205 -30 0 -32
-26 -2 -35 21 -7 21 -8 14 -219 -11 -306 -18 -376 -39 -387 -21 -12 -23 -39
-3 -39 23 0 25 -12 17 -76 -5 -34 -5 -66 1 -77 10 -20 73 -53 175 -91 40 -15
73 -31 73 -36 0 -12 -68 -63 -130 -98 -102 -56 -305 -140 -357 -147 -46 -6
-53 -10 -62 -37 -6 -17 -11 -42 -11 -56 0 -24 1 -25 55 -19 41 4 82 20 151 56
l95 51 87 -29 c48 -16 114 -34 145 -40 66 -12 77 -17 77 -34 0 -7 20 -35 45
-64 25 -28 45 -56 45 -62 0 -5 -16 -22 -35 -37 -43 -32 -56 -71 -30 -90 12 -9
16 -20 11 -38 -8 -32 -4 -32 42 -1 20 14 42 25 48 25 6 0 19 -18 29 -39 17
-39 17 -40 -4 -74 -31 -51 -28 -60 18 -52 24 4 49 2 63 -5 40 -21 88 -73 88
-96 0 -30 12 -36 45 -24 40 15 48 3 24 -36 l-21 -35 120 7 121 7 14 -35 c20
-49 31 -53 76 -28 52 30 75 24 79 -19 2 -19 -2 -55 -9 -80 -20 -78 -27 -121
-18 -121 18 0 52 59 72 128 12 41 26 76 32 77 5 2 41 13 78 25 77 23 98 21
117 -15 18 -34 26 -32 58 15 34 49 45 53 89 35 48 -20 51 -20 61 18 9 34 44
49 65 28 24 -24 47 -11 74 44 28 58 45 66 79 40 26 -20 28 -19 69 16 l36 32
27 -24 c15 -13 29 -25 31 -26 2 -2 -2 -21 -9 -43 -8 -25 -10 -44 -4 -50 12
-12 186 -62 193 -55 3 3 0 20 -7 37 -8 23 -9 35 -1 45 21 24 38 13 49 -29 6
-24 13 -50 15 -58 5 -17 133 -62 141 -49 9 15 -14 46 -52 68 -34 20 -36 24
-22 38 10 9 36 16 69 17 46 1 54 -2 65 -23 23 -44 36 -43 79 6 l41 46 110 8
c60 4 121 10 136 14 21 5 47 -4 121 -44 52 -28 97 -51 101 -51 3 0 6 10 6 23
0 17 8 25 32 32 18 6 39 22 47 37 14 24 13 33 -13 108 -35 104 -31 137 24 181
21 17 44 45 51 63 16 41 38 66 58 66 13 0 20 -22 34 -113 21 -136 21 -147 2
-147 -10 0 -15 -10 -15 -29 0 -31 22 -61 45 -61 12 0 15 34 17 186 l3 186 70
19 70 18 37 -42 c21 -23 38 -45 38 -49 0 -23 20 -3 31 30 22 68 68 149 99 176
35 29 81 34 100 10 28 -33 50 -37 76 -13 19 18 29 21 42 13 90 -55 75 -56 182
11 57 37 80 43 80 23 0 -46 24 -90 61 -115 36 -24 39 -29 33 -59 -3 -19 -4
-34 -2 -34 2 0 18 11 36 23 l32 24 57 -29 c32 -16 59 -32 61 -37 1 -4 -27 -56
-63 -115 -36 -60 -74 -125 -85 -145 -10 -20 -37 -56 -61 -80 l-42 -43 21 -44
c12 -24 26 -44 31 -44 5 0 31 24 59 54 38 42 64 87 110 193 34 76 65 163 69
193 9 60 22 71 52 41 12 -12 24 -21 27 -21 4 0 29 21 56 46 39 37 52 43 63 34
12 -10 12 -18 -5 -51 l-20 -39 20 0 c12 0 31 5 42 11 32 17 44 -2 30 -48 -14
-46 -7 -55 60 -72 73 -19 78 -24 66 -71 -14 -55 -4 -86 32 -98 16 -6 30 -16
30 -21 0 -24 18 -9 35 29 13 29 24 40 40 40 31 0 62 -38 70 -87 4 -24 9 -43
12 -43 3 0 21 14 41 31 34 30 38 31 96 25 44 -5 66 -13 79 -28 l18 -21 29 28
c34 32 54 25 45 -16 -4 -16 -4 -29 0 -29 4 0 45 31 91 70 47 38 91 70 97 70 7
0 23 -9 37 -20 36 -28 42 -25 70 25 25 45 54 65 71 48 5 -5 26 -49 47 -98 44
-105 68 -124 59 -48 -3 27 -15 78 -27 112 l-21 63 57 69 c31 38 60 69 66 69 5
0 22 -7 37 -15 16 -8 31 -11 35 -8 3 4 6 32 6 64 l0 57 48 18 c26 10 48 19 50
20 2 1 -4 13 -12 27 -23 34 -11 55 37 65 37 7 42 11 38 33 -3 13 -5 47 -5 74
l-1 50 37 3 c35 3 38 6 50 50 13 45 15 47 48 44 37 -4 60 -24 60 -53 0 -22 26
-43 41 -33 7 4 46 19 88 34 82 29 96 45 57 60 -19 7 -26 17 -26 35 0 34 24 32
67 -5 38 -34 49 -35 118 -11 69 25 66 45 -7 49 -69 4 -73 16 -25 68 32 35 34
36 72 25 64 -17 65 -17 65 45 0 63 -3 59 148 192 l72 64 98 13 c53 8 101 15
105 15 4 0 3 9 -4 21 -9 17 -7 25 10 43 41 43 27 72 -68 150 -82 66 -101 107
-74 159 12 24 13 37 4 67 -16 53 -14 90 5 97 23 9 205 -174 185 -186 -11 -7
-9 -15 10 -40 26 -35 28 -36 54 -17 17 12 12 22 -81 147 -55 74 -103 140 -108
147 -5 8 9 33 40 70 26 31 49 58 50 60 1 2 30 -4 64 -13 34 -9 64 -15 65 -13
2 2 -7 35 -21 73 -30 91 -31 152 -1 195 35 53 50 58 96 32 32 -18 45 -21 61
-12 26 14 26 42 0 58 -33 20 -23 32 28 32 61 0 76 12 97 80 10 30 24 63 33 73
16 18 72 24 72 8 0 -24 34 -41 79 -41 39 0 52 -4 64 -22 l15 -23 16 38 c14 31
21 37 45 37 43 0 82 17 116 50 21 21 39 29 59 27 26 -2 30 2 37 34 5 20 22 71
39 113 35 89 37 134 10 195 -31 67 -73 114 -132 146 -109 59 -222 26 -366
-109 -45 -42 -87 -76 -93 -76 -7 0 -34 20 -60 45 -98 92 -210 113 -321 63 -66
-31 -72 -26 -62 55 7 49 7 50 -17 42 -13 -4 -40 -9 -59 -12 -33 -4 -37 -1 -64
41 -25 39 -34 46 -61 46 l-32 0 5 72 5 71 -30 -6 c-23 -5 -35 -1 -48 13 -17
19 -17 20 9 30 15 5 54 10 87 10 33 0 69 4 79 10 10 5 32 34 49 65 37 65 55
71 49 17 l-3 -39 39 9 c50 11 66 24 66 54 0 29 -26 44 -63 37 -26 -5 -27 -3
-27 33 0 22 -9 54 -20 72 -25 40 -25 75 -3 113 14 24 15 33 5 49 -6 11 -12 24
-12 29 0 14 131 88 177 101 48 12 63 32 63 85 0 35 -2 37 -25 31 -70 -18 -143
-53 -202 -97 -46 -35 -69 -47 -80 -41 -8 5 -36 7 -63 4 -26 -2 -57 1 -69 8
-29 15 -55 -2 -142 -92 -36 -37 -68 -68 -72 -68 -4 0 -7 11 -7 24 0 15 13 36
35 55 l35 31 -40 6 c-22 4 -43 10 -45 14 -5 8 37 66 60 83 6 4 -14 29 -50 61
l-59 54 37 41 c39 43 48 85 21 95 -12 4 -15 15 -12 36 3 17 3 30 2 30 -1 0
-22 -16 -45 -36 l-43 -36 -23 27 c-27 30 -29 64 -8 105 19 36 8 44 -46 35 -36
-6 -47 -3 -95 30 -52 36 -58 45 -55 73 2 15 -24 16 -49 0 -15 -10 -22 -10 -32
0 -9 9 -10 15 -2 20 16 10 36 52 25 52 -5 0 -55 -9 -111 -20 -56 -11 -107 -20
-114 -20 -6 0 -18 16 -25 36 -17 47 -34 52 -72 19 -21 -17 -41 -25 -58 -23
-25 3 -26 5 -26 73 0 39 3 91 7 118 17 111 -40 16 -65 -108 l-14 -70 -55 -2
c-30 0 -72 -9 -94 -18 -37 -15 -40 -15 -56 4 -20 26 -28 26 -28 4 0 -10 -16
-33 -35 -52 -34 -33 -37 -34 -74 -23 -51 16 -51 16 -51 -10 0 -13 -9 -34 -19
-47 -18 -24 -20 -24 -45 -8 -14 9 -29 17 -34 17 -4 0 -20 -27 -35 -60 -29 -66
-49 -81 -76 -56 -23 21 -28 20 -63 -9 -16 -14 -34 -23 -39 -19 -19 12 -7 44
27 72 l36 29 -37 7 c-51 10 -55 31 -13 73 l35 34 -55 53 -55 52 37 48 c42 55
44 66 15 92 -13 12 -19 27 -16 41 4 22 3 22 -36 -7 -23 -17 -47 -30 -54 -30
-7 0 -21 16 -30 35 -16 33 -16 37 0 70 21 44 22 69 3 62 -58 -22 -83 -19 -140
19 -42 29 -56 44 -56 62 0 25 -12 26 -64 6 -22 -8 -21 24 1 48 9 10 14 21 10
24 -3 3 -55 -4 -115 -15 -60 -12 -112 -21 -115 -21 -3 0 -15 20 -26 45 -11 25
-23 45 -26 45 -4 0 -24 -13 -45 -30 -21 -16 -48 -30 -60 -30 -23 0 -23 1 -17
120 3 67 1 120 -4 120 -5 0 -16 -12 -25 -26z m-308 -1566 c32 -37 91 -123 114
-167 31 -62 16 -103 -73 -202 -92 -103 -97 -112 -97 -185 0 -34 -3 -76 -6 -93
-8 -39 -36 -43 -29 -3 3 15 9 54 15 86 5 33 8 61 6 64 -2 2 -27 -30 -54 -70
l-50 -74 -90 -12 c-118 -16 -152 -15 -152 2 0 23 45 127 207 478 l36 77 -47
53 c-25 29 -46 56 -46 60 0 5 55 8 123 8 115 0 125 -1 143 -22z m2796 -195
c11 -10 18 -11 23 -4 10 17 62 13 69 -5 5 -13 9 -14 21 -4 21 17 52 3 59 -27
4 -14 5 -28 2 -30 -3 -3 -56 0 -118 6 -63 6 -120 11 -126 11 -8 0 -6 13 8 40
21 41 27 42 62 13z m-4182 -97 c124 -21 231 -43 238 -48 6 -6 12 -27 12 -47 0
-70 6 -69 -248 -28 -127 21 -268 40 -314 44 -90 6 -152 -6 -162 -32 -4 -11
-24 -15 -77 -15 -123 0 -144 -25 -242 -293 -9 -24 -15 -28 -39 -25 -15 3 -28
1 -28 -4 0 -5 16 -8 36 -6 36 3 37 4 69 94 18 50 40 104 48 120 20 38 65 80
100 93 35 14 154 14 162 1 3 -5 -21 -55 -54 -111 -76 -128 -113 -224 -146
-381 -54 -251 -63 -268 -141 -268 l-46 0 6 73 c3 39 9 123 12 185 l7 112 -26
0 c-32 0 -34 -9 -41 -212 -6 -134 -4 -147 11 -151 13 -3 14 -5 3 -6 -8 0 -26
8 -40 19 -25 19 -25 21 -23 152 1 73 5 151 8 174 l6 41 -213 17 c-222 17 -290
28 -253 39 11 3 58 8 105 12 127 9 332 44 356 60 11 7 33 40 48 72 15 32 35
69 43 82 14 22 17 23 28 8 10 -15 17 -10 49 38 47 68 120 136 177 166 74 38
206 69 279 66 36 -2 166 -20 290 -41z m4170 -14 c0 -4 -25 -20 -55 -35 -51
-25 -55 -26 -55 -8 0 42 11 51 61 51 27 0 49 -4 49 -8z m-4386 -127 c54 -7
101 -16 104 -20 6 -6 3 -30 -48 -395 -54 -384 -81 -792 -101 -1511 -6 -222
-14 -433 -17 -469 -7 -64 -8 -65 -44 -77 -89 -29 -361 -57 -674 -68 l-170 -7
-31 26 c-30 25 -36 26 -159 26 -269 0 -608 36 -806 83 l-97 24 -20 -20 -20
-20 -113 42 c-62 24 -121 51 -132 61 -18 17 -18 26 -7 177 6 87 12 186 13 220
0 34 5 60 10 57 4 -3 8 16 9 43 1 43 16 114 18 87 1 -7 8 -15 17 -18 8 -3 12
-2 9 4 -14 22 14 7 85 -46 95 -72 140 -114 140 -132 0 -23 -85 -102 -109 -102
-12 0 -19 -4 -16 -10 12 -19 37 -10 81 28 l43 39 68 -32 c125 -60 300 -85 579
-86 176 0 226 7 355 49 l57 18 -20 23 c-19 24 -19 24 -25 3 -7 -27 -84 -57
-186 -73 -88 -14 -370 -6 -507 15 -190 28 -304 70 -298 111 2 14 9 19 23 17
11 -1 36 -5 55 -7 25 -4 19 0 -20 13 -30 9 -70 31 -88 49 -30 29 -34 40 -39
103 -3 38 -9 70 -13 70 -7 0 -6 -38 4 -108 2 -12 0 -21 -4 -20 -15 7 -209 174
-214 185 -3 6 -2 28 1 48 5 33 7 34 23 20 32 -29 175 -73 290 -89 230 -32 381
-40 755 -40 417 -1 367 -6 863 79 79 14 163 25 187 25 53 0 50 -15 65 260 14
254 58 679 119 1160 5 36 6 69 4 73 -3 5 -44 8 -91 7 -48 -1 -91 -1 -95 -1 -4
1 4 18 18 38 14 21 25 48 25 60 0 28 6 28 144 8z m1796 -90 l115 -21 -130 -8
c-144 -8 -148 -10 -159 -76 -4 -28 -11 -40 -23 -40 -13 0 -15 8 -9 53 3 28 6
68 6 89 l0 36 43 -5 c23 -3 94 -16 157 -28z m1893 -132 c4 -54 7 -117 7 -140
l0 -43 -59 0 c-47 0 -60 3 -63 16 -3 14 -22 16 -150 15 l-147 -2 -3 28 c-2 21
-9 29 -28 32 -35 4 -40 16 -40 99 l0 72 38 1 c20 1 89 5 152 9 63 3 154 7 201
8 l86 2 6 -97z m302 67 c24 0 25 -3 25 -52 0 -73 -17 -214 -31 -255 -8 -27
-16 -33 -32 -31 -27 4 -32 32 -42 226 l-8 144 31 -16 c17 -9 42 -16 57 -16z
m-1805 -1 c36 -6 84 -13 108 -16 71 -9 47 -20 -59 -25 -55 -3 -105 -10 -110
-15 -6 -6 -13 -29 -16 -52 -3 -24 -11 -41 -19 -41 -21 0 -24 15 -18 94 6 70 8
75 28 71 12 -3 50 -10 86 -16z m-2242 -136 c-10 -75 -19 -137 -20 -139 -2 -1
-63 3 -135 9 -98 7 -133 14 -133 23 0 22 49 146 76 191 27 46 33 48 165 51
l66 2 -19 -137z m3192 58 l0 -79 -96 -7 c-70 -6 -98 -4 -103 4 -4 7 -13 42
-20 78 -10 54 -10 68 1 74 7 5 59 9 116 9 l102 0 0 -79z m725 17 c2 -2 6 -57
10 -122 8 -134 12 -129 -64 -81 -37 23 -41 29 -41 68 0 23 -3 66 -7 96 l-6 54
53 -6 c29 -4 54 -8 55 -9z m-1285 -23 c0 -6 -9 -20 -20 -30 -20 -18 -20 -17
-20 12 0 16 3 32 6 36 9 9 34 -4 34 -18z m-1296 -90 c55 -7 178 -23 271 -35
94 -11 330 -41 525 -65 195 -24 740 -92 1210 -151 470 -59 858 -110 862 -113
4 -3 12 -119 19 -258 l12 -251 -22 -28 -23 -29 31 -27 c17 -15 29 -33 26 -40
-2 -7 -9 -102 -15 -210 -5 -108 -12 -203 -15 -211 -8 -20 -155 -65 -270 -82
-55 -8 -128 -19 -161 -25 -34 -5 -66 -10 -72 -10 -6 0 -11 58 -14 153 -4 128
-8 161 -27 210 -25 63 -74 127 -98 127 -86 0 -159 -176 -171 -409 l-7 -125
-35 -7 c-19 -4 -50 -9 -67 -13 l-33 -5 -2 107 -2 107 -3 -107 -4 -107 -27 -5
c-15 -3 -99 -17 -187 -31 -261 -42 -588 -95 -612 -100 l-23 -5 -2 267 -3 268
-2 -267 -3 -266 -28 -6 c-28 -5 -439 -71 -506 -81 -27 -4 -181 -34 -181 -35 0
0 1 66 3 146 3 107 -1 167 -13 227 -39 192 -121 315 -226 336 -87 17 -143 -3
-215 -81 -68 -72 -128 -202 -158 -338 -13 -61 -36 -290 -36 -361 0 -12 -16
-20 -57 -28 -74 -15 -328 -60 -328 -58 0 1 1 266 3 590 l4 587 164 0 c124 0
164 -3 165 -12 0 -10 2 -10 6 0 4 9 88 12 374 12 l369 0 -1 -96 c0 -52 2 -98
5 -101 3 -4 6 39 6 95 l0 102 55 0 55 0 2 -87 2 -88 3 88 4 87 269 0 270 0 2
-142 2 -143 3 142 4 143 479 0 480 0 1 -28 2 -27 4 28 4 28 220 -3 c141 -2
219 1 219 7 0 6 -96 10 -267 10 -148 0 -861 1 -1585 3 l-1318 2 0 23 c0 14 42
76 110 160 165 207 250 328 335 477 43 74 83 145 89 157 13 27 19 27 150 8z
m-2957 -111 c34 -3 67 -12 73 -19 8 -10 11 -107 8 -347 l-3 -333 -29 -29 c-27
-26 -36 -29 -90 -28 -34 1 -77 -2 -96 -7 -36 -9 -29 -12 38 -16 20 -1 44 -5
52 -8 8 -4 38 -8 65 -10 l50 -3 -55 -3 c-51 -2 -53 -3 -32 -15 22 -12 21 -13
-25 -14 -26 -1 -70 -7 -97 -14 -46 -12 -49 -11 -68 12 -17 21 -17 25 -4 30 10
3 12 10 7 19 -6 10 -13 10 -28 2 -11 -5 -23 -7 -27 -4 -3 3 -7 -5 -7 -18 -1
-17 -3 -19 -6 -7 -4 16 -7 16 -33 3 -36 -19 -46 -19 -31 -2 6 8 18 72 26 143
49 417 83 654 98 672 10 13 23 13 214 -4z m2121 -515 c-7 -95 -18 -131 -18
-63 0 26 -3 35 -9 25 -6 -9 -8 5 -7 39 0 29 -3 54 -9 56 -16 6 -38 -13 -30
-25 5 -9 10 -9 21 0 11 9 14 8 14 -9 0 -11 -7 -22 -15 -26 -8 -3 -15 -1 -15 4
0 6 -7 10 -15 10 -8 0 -15 -4 -15 -10 0 -5 -9 -10 -20 -10 -11 0 -20 5 -20 10
0 6 -4 10 -9 10 -4 0 -6 -11 -3 -25 2 -15 0 -25 -7 -25 -6 0 -11 5 -11 10 0 6
-4 10 -10 10 -5 0 -10 -7 -10 -15 0 -18 -17 -20 -23 -2 -2 6 -7 -5 -11 -25 -4
-21 -11 -38 -16 -38 -5 0 -7 7 -3 16 3 9 -6 4 -21 -10 -14 -15 -26 -31 -26
-37 0 -6 -4 -7 -10 -4 -5 3 -7 0 -4 -8 3 -8 -2 -20 -11 -27 -19 -16 -19 -4 0
51 30 85 88 198 104 202 9 3 61 5 116 6 l101 1 -8 -91z m-1318 -18 c0 -14 -10
-21 -37 -28 -31 -7 -38 -13 -38 -33 0 -21 4 -25 27 -23 20 1 26 -2 21 -12 -3
-9 4 -18 18 -24 18 -6 8 -9 -42 -10 -52 -1 -66 2 -66 14 0 8 5 15 10 15 5 0 4
6 -2 14 -8 10 -8 23 1 52 11 33 18 40 48 45 57 10 60 10 60 -10z m37 3 c-3 -3
-12 -4 -19 -1 -8 3 -5 6 6 6 11 1 17 -2 13 -5z m-162 -163 c17 -7 17 -8 -8
-13 -19 -4 -27 -1 -27 8 0 15 6 16 35 5z m223 -11 c-4 -16 -41 -18 -123 -7
-22 3 -49 5 -60 6 -13 1 -16 4 -8 9 7 4 53 8 103 8 76 -1 90 -3 88 -16z m1342
-185 c0 -184 -1 -195 -19 -195 -10 0 -24 7 -31 15 -17 20 -27 19 -52 -5 -12
-11 -30 -20 -40 -20 -10 0 -18 -7 -18 -15 0 -10 10 -15 30 -15 23 0 30 -4 30
-20 0 -11 4 -20 9 -20 4 0 20 9 34 20 14 11 33 20 43 20 16 0 17 -22 11 -392
-4 -215 -10 -395 -15 -400 -4 -4 -82 -19 -172 -33 -91 -13 -219 -34 -285 -44
-65 -11 -120 -19 -122 -17 -1 1 2 78 7 172 5 93 12 281 16 417 l6 248 32 24
c17 13 101 77 186 142 85 65 197 161 250 214 52 53 96 97 98 98 1 0 2 -87 2
-194z m-463 123 c-3 -7 -5 -2 -5 12 0 14 2 19 5 13 2 -7 2 -19 0 -25z m-850
-70 c-2 -13 -4 -3 -4 22 0 25 2 35 4 23 2 -13 2 -33 0 -45z m-560 26 c-3 -3
-12 -4 -19 -1 -8 3 -5 6 6 6 11 1 17 -2 13 -5z m135 -14 c71 -7 71 -7 -37 -7
-60 0 -99 2 -86 4 19 4 21 7 10 14 -10 7 -5 8 13 3 15 -3 60 -9 100 -14z
m-789 -4 c4 -10 1 -13 -9 -9 -7 3 -14 9 -14 14 0 14 17 10 23 -5z m47 0 c0 -7
14 -19 30 -26 45 -18 43 -25 -5 -26 -47 -2 -61 12 -50 47 7 22 25 25 25 5z
m275 4 c3 -5 -1 -10 -9 -10 -9 0 -16 5 -16 10 0 6 4 10 9 10 6 0 13 -4 16 -10z
m603 -7 c-10 -2 -28 -2 -40 0 -13 2 -5 4 17 4 22 1 32 -1 23 -4z m-743 -33
c-28 -12 -57 -12 -50 0 3 6 21 10 38 9 27 0 29 -2 12 -9z m830 0 c-16 -4 -43
-8 -60 -8 -29 1 -29 1 5 8 19 4 46 7 60 8 22 0 22 -1 -5 -8z m147 -8 c5 -5 13
-26 18 -46 6 -27 5 -36 -5 -36 -8 0 -11 7 -8 18 4 15 -3 17 -49 16 -30 -1 -63
-6 -74 -12 -12 -6 -30 -9 -41 -6 -12 4 -20 1 -20 -8 0 -9 19 -13 64 -14 35 -1
63 3 63 7 0 13 38 11 42 -2 2 -7 47 -12 118 -14 182 -5 445 -17 449 -21 2 -2
10 1 18 7 10 9 13 8 13 -1 0 -9 4 -9 17 1 14 12 16 12 11 -1 -4 -13 -63 -16
-404 -24 l-399 -8 -90 45 -90 46 58 0 c57 1 66 -4 47 -27 -5 -7 -2 -6 7 2 14
13 14 17 3 31 -12 15 -10 16 16 10 21 -5 25 -4 14 4 -19 13 -6 17 73 24 45 4
57 3 57 -9 0 -16 5 -16 35 -5 19 8 19 8 -2 15 -13 4 -23 12 -23 18 0 12 68 4
82 -10z m-1142 -2 c0 -5 -4 -10 -10 -10 -5 0 -10 5 -10 10 0 6 5 10 10 10 6 0
10 -4 10 -10z m1224 -17 c4 -10 12 -13 24 -8 9 4 27 9 39 11 29 6 453 -22 476
-31 37 -15 14 -25 -45 -20 -35 3 -151 7 -259 8 -109 1 -195 5 -192 10 6 10
-21 9 -51 -3 -18 -6 -26 -6 -26 1 0 6 -4 7 -10 4 -14 -8 -13 11 2 34 13 21 33
18 42 -6z m-1031 -20 c-7 -2 -19 -2 -25 0 -7 3 -2 5 12 5 14 0 19 -2 13 -5z
m593 -4 c-16 -4 -35 -5 -43 -1 -7 5 5 8 30 9 38 1 39 0 13 -8z m-129 -5 c-3
-3 -12 -4 -19 -1 -8 3 -5 6 6 6 11 1 17 -2 13 -5z m-652 -26 c94 0 122 -3 100
-10 -41 -12 -135 -17 -135 -7 0 5 -12 4 -27 -2 -18 -7 -68 -8 -137 -3 -97 6
-107 8 -90 21 14 10 37 12 89 8 39 -4 129 -7 200 -7z m415 -18 c0 -12 -17 -12
-45 0 -17 7 -15 9 13 9 17 1 32 -3 32 -9z m126 -3 c4 -4 -18 -7 -49 -7 -31 0
-57 4 -57 8 0 11 96 9 106 -1z m237 -14 c11 -2 29 -10 40 -19 17 -13 18 -15 4
-10 -10 3 -105 6 -209 6 -105 0 -189 2 -187 5 3 2 70 6 149 9 80 2 151 5 158
5 7 1 10 6 6 13 -5 7 -3 8 7 2 8 -4 22 -10 32 -11z m-366 -19 c-3 -3 -12 -4
-19 -1 -8 3 -5 6 6 6 11 1 17 -2 13 -5z m5037 -134 c33 -40 41 -82 41 -221 0
-104 -3 -120 -26 -165 -39 -77 -89 -71 -118 15 -6 19 -11 46 -11 60 1 25 2 25
20 -9 15 -29 20 -32 25 -17 8 19 -21 71 -34 62 -12 -7 -21 20 -21 60 0 40 9
67 20 60 11 -7 26 15 34 47 5 22 3 26 -8 22 -9 -3 -18 -15 -22 -26 -12 -40
-16 -8 -4 41 11 47 48 101 69 101 5 0 21 -14 35 -30z m-2162 -210 c59 -67 73
-121 72 -290 0 -125 -3 -153 -23 -202 -32 -82 -95 -148 -147 -155 -36 -5 -45
-1 -78 27 -77 68 -114 200 -102 357 8 98 33 175 76 238 61 89 137 98 202 25z
m-3362 -755 c18 -36 30 -68 28 -71 -8 -7 -261 -34 -267 -28 -3 2 22 32 55 65
55 56 114 98 140 99 7 0 26 -29 44 -65z"/>
<path d="M2808 2453 c7 -3 16 -2 19 1 4 3 -2 6 -13 5 -11 0 -14 -3 -6 -6z"/>
<path d="M2146 2259 c-15 -50 -25 -93 -22 -96 3 -3 7 0 9 8 38 134 47 172 44
175 -2 2 -16 -37 -31 -87z"/>
<path d="M2730 2340 c-117 -5 -161 -12 -229 -33 -78 -25 -128 -48 -71 -33 14
3 36 9 49 13 18 4 22 3 16 -7 -5 -9 -2 -10 13 -6 26 9 226 35 230 31 7 -7 -28
-62 -68 -108 -23 -26 -40 -50 -37 -53 8 -8 80 60 126 120 23 30 51 56 61 59
19 5 19 4 -2 -26 -12 -18 -58 -70 -102 -116 -45 -46 -72 -79 -61 -73 20 10 95
87 172 175 36 42 47 48 92 54 l50 6 4 -69 3 -69 2 73 2 72 -52 -2 c-29 -1
-118 -5 -198 -8z"/>
<path d="M2628 2263 c-13 -3 -18 -14 -18 -38 0 -18 -3 -40 -6 -49 -3 -9 -1
-16 5 -16 6 0 14 14 18 31 4 19 9 26 13 18 6 -8 13 -2 24 19 9 17 16 33 16 37
0 6 -26 5 -52 -2z"/>
<path d="M2510 2203 c0 -39 -11 -73 -22 -73 -5 0 -8 17 -6 38 1 20 -1 39 -7
42 -6 3 -11 -15 -13 -42 -3 -47 -3 -48 27 -48 31 0 31 0 31 55 0 30 -2 55 -5
55 -3 0 -5 -12 -5 -27z"/>
<path d="M965 2185 c17 -14 35 -25 40 -25 6 1 -3 12 -20 25 -16 14 -34 25 -40
25 -5 -1 4 -12 20 -25z"/>
<path d="M2419 2150 c-6 -66 -4 -81 9 -64 4 5 5 36 2 69 l-5 60 -6 -65z"/>
<path d="M2364 2186 c-28 -12 -30 -17 -25 -52 l5 -39 6 38 c11 61 23 57 18 -6
-4 -46 -2 -55 8 -45 11 11 31 119 22 118 -1 -1 -17 -7 -34 -14z"/>
<path d="M830 2183 c0 -13 84 -83 100 -83 9 0 -8 17 -82 79 -10 8 -18 9 -18 4z"/>
<path d="M1198 2139 c13 -5 96 -18 185 -30 140 -18 191 -20 372 -15 116 3 228
10 250 15 l40 9 -39 1 c-22 0 -103 -4 -180 -10 -152 -12 -384 0 -541 27 -91
16 -121 17 -87 3z"/>
<path d="M2180 2127 c-30 -11 -57 -22 -60 -25 -3 -2 15 -22 39 -43 42 -38 71
-50 71 -29 0 6 -7 10 -15 10 -8 0 -15 7 -15 15 0 8 -6 15 -14 15 -7 0 -19 6
-25 14 -9 11 -8 15 5 20 26 10 34 7 44 -16 9 -23 9 -23 10 2 l1 25 16 -27 c20
-32 50 -48 38 -21 -5 10 -10 33 -13 51 -5 37 -8 37 -82 9z"/>
<path d="M2964 2020 c0 -52 1 -74 3 -47 2 26 2 68 0 95 -2 26 -3 4 -3 -48z"/>
<path d="M784 1935 c0 -49 1 -71 3 -48 2 23 2 64 0 90 -2 26 -3 8 -3 -42z"/>
<path d="M830 1922 c0 -25 7 -45 18 -55 25 -22 32 -21 32 4 0 20 -36 89 -46
89 -2 0 -4 -17 -4 -38z"/>
<path d="M2534 1846 c-74 -35 -144 -89 -144 -111 0 -16 150 -31 199 -20 25 5
31 12 31 33 0 15 3 51 6 80 8 64 4 64 -92 18z m56 -65 c-1 -15 -10 -33 -24
-43 -22 -16 -24 -16 -45 3 -21 20 -29 69 -11 69 6 0 10 -13 10 -29 0 -17 5
-33 12 -37 8 -5 9 4 5 33 -8 48 -3 55 29 41 17 -8 24 -19 24 -37z"/>
<path d="M2331 1836 c-44 -24 -143 -156 -117 -156 2 0 27 31 55 69 28 38 61
76 74 84 27 20 20 21 -12 3z"/>
<path d="M2953 1735 c0 -22 2 -30 4 -17 2 12 2 30 0 40 -3 9 -5 -1 -4 -23z"/>
<path d="M2518 1653 c12 -2 32 -2 45 0 12 2 2 4 -23 4 -25 0 -35 -2 -22 -4z"/>
<path d="M6834 3195 c0 -126 2 -177 3 -112 2 65 2 168 0 230 -1 62 -3 9 -3
-118z"/>
<path d="M6994 3240 c0 -69 1 -97 3 -62 2 34 2 90 0 125 -2 34 -3 6 -3 -63z"/>
<path d="M6993 3000 c0 -25 2 -35 4 -22 2 12 2 32 0 45 -2 12 -4 2 -4 -23z"/>
<path d="M6968 2943 c-37 -6 -40 -43 -4 -43 13 0 27 -6 29 -12 3 -7 6 4 6 25
1 20 0 36 -1 36 -2 -1 -15 -4 -30 -6z"/>
<path d="M7080 2712 l0 -190 48 4 c26 3 52 7 58 9 15 5 30 260 16 278 -5 6
-13 27 -17 45 -6 28 -10 32 -40 32 -18 0 -40 3 -49 6 -14 5 -16 -15 -16 -184z"/>
<path d="M4002 2828 c-2 -58 0 -67 14 -61 9 3 12 8 5 12 -5 4 -11 31 -14 61
-3 55 -3 55 -5 -12z"/>
<path d="M6390 2830 c0 -5 5 -10 10 -10 6 0 10 5 10 10 0 6 -4 10 -10 10 -5 0
-10 -4 -10 -10z"/>
<path d="M6712 2784 c-29 -20 -28 -32 3 -26 16 3 25 11 25 23 0 23 0 23 -28 3z"/>
<path d="M6834 2545 c0 -143 2 -200 3 -127 2 73 2 190 0 260 -1 70 -3 10 -3
-133z"/>
<path d="M5884 2530 c0 -129 2 -182 3 -117 2 64 2 170 0 235 -1 64 -3 11 -3
-118z"/>
<path d="M4044 2706 c-3 -8 -4 -23 -2 -33 4 -22 57 -30 88 -13 24 13 27 45 4
54 -30 11 -84 6 -90 -8z"/>
<path d="M4004 2445 c0 -148 2 -211 3 -138 2 72 2 194 0 270 -1 76 -3 17 -3
-132z"/>
<path d="M4751 2674 c0 -11 3 -14 6 -6 3 7 2 16 -1 19 -3 4 -6 -2 -5 -13z"/>
<path d="M6394 2575 c0 -49 1 -71 3 -48 2 23 2 64 0 90 -2 26 -3 8 -3 -42z"/>
<path d="M4753 2490 c0 -36 2 -50 4 -32 2 17 2 47 0 65 -2 17 -4 3 -4 -33z"/>
<path d="M7133 2512 c-45 -3 -53 -6 -53 -23 0 -16 7 -19 50 -19 35 0 52 4 56
15 10 25 0 30 -53 27z"/>
<path d="M6080 2460 c0 -20 5 -30 15 -30 10 0 15 10 15 30 0 20 -5 30 -15 30
-10 0 -15 -10 -15 -30z"/>
<path d="M5662 2435 c3 -13 0 -26 -6 -28 -6 -2 -8 -8 -4 -12 4 -4 14 -5 23 -2
21 9 21 67 -1 67 -12 0 -15 -7 -12 -25z"/>
<path d="M5147 2424 c-4 -4 -7 -27 -7 -51 0 -41 1 -43 31 -43 30 0 30 1 27 48
-2 38 -7 48 -23 50 -12 2 -24 0 -28 -4z m43 -47 c0 -23 -5 -34 -15 -34 -10 0
-15 11 -15 34 0 23 5 33 15 33 10 0 15 -10 15 -33z"/>
<path d="M6993 2360 c0 -25 2 -35 4 -22 2 12 2 32 0 45 -2 12 -4 2 -4 -23z"/>
<path d="M5873 2180 c0 -41 2 -58 4 -37 2 20 2 54 0 75 -2 20 -4 3 -4 -38z"/>
<path d="M4864 2070 c0 -52 1 -74 3 -47 2 26 2 68 0 95 -2 26 -3 4 -3 -48z"/>
<path d="M3993 1970 c0 -41 2 -58 4 -37 2 20 2 54 0 75 -2 20 -4 3 -4 -38z"/>
<path d="M1315 2850 c3 -5 8 -10 11 -10 2 0 4 5 4 10 0 6 -5 10 -11 10 -5 0
-7 -4 -4 -10z"/>
<path d="M3390 3180 c0 -5 7 -10 15 -10 8 0 15 5 15 10 0 6 -7 10 -15 10 -8 0
-15 -4 -15 -10z"/>
<path d="M2085 2749 c-8 -12 36 -22 47 -11 6 6 0 11 -17 14 -14 3 -28 2 -30
-3z"/>
<path d="M2047 2706 c-4 -10 0 -12 14 -9 10 3 16 9 13 14 -8 13 -21 11 -27 -5z"/>
<path d="M6533 2503 c-24 -9 -13 -21 22 -25 19 -2 35 -1 35 4 0 7 -34 29 -42
27 -2 0 -9 -3 -15 -6z"/>
<path d="M6540 2371 c-5 -11 -10 -42 -10 -70 0 -41 4 -52 21 -62 29 -15 39 2
39 72 0 70 -27 103 -50 60z"/>
<path d="M6558 2148 c-16 -5 -28 -14 -28 -19 0 -16 26 -10 45 11 10 11 16 20
14 19 -2 0 -16 -5 -31 -11z"/>
<path d="M4307 2303 c-4 -3 -7 -15 -7 -26 0 -17 5 -19 40 -14 34 4 46 1 72
-21 28 -24 30 -24 19 -4 -23 42 -104 85 -124 65z"/>
<path d="M4200 2168 c-27 -60 -26 -88 3 -88 20 0 26 9 41 56 15 47 16 58 4 65
-22 15 -28 10 -48 -33z"/>
<path d="M4325 2116 c-47 -47 -47 -173 0 -214 32 -27 42 -25 69 12 39 52 20
226 -25 226 -11 0 -31 -11 -44 -24z"/>
<path d="M4185 1918 c-3 -7 1 -33 8 -58 11 -38 17 -46 40 -48 32 -4 32 -4 10
65 -12 39 -22 53 -35 53 -10 0 -21 -6 -23 -12z"/>
<path d="M4396 1784 c-21 -19 -37 -25 -58 -22 -25 4 -29 2 -26 -16 2 -11 10
-22 19 -24 18 -3 74 40 90 69 13 24 10 24 -25 -7z"/>
<path d="M6405 6111 c-6 -11 9 -23 19 -14 9 9 7 23 -3 23 -6 0 -12 -4 -16 -9z"/>
<path d="M3640 6096 c0 -15 64 -76 80 -76 18 0 11 12 -30 51 -44 43 -50 46
-50 25z"/>
<path d="M2280 6045 c0 -10 7 -15 18 -13 21 4 19 22 -2 26 -10 2 -16 -3 -16
-13z"/>
<path d="M4441 5986 c-8 -9 -11 -19 -7 -23 9 -9 29 13 24 27 -2 8 -8 7 -17 -4z"/>
<path d="M3336 5971 c-9 -14 21 -33 45 -29 22 3 22 4 5 21 -19 18 -42 22 -50
8z"/>
<path d="M3783 5943 c-18 -7 -16 -38 3 -54 14 -11 19 -10 35 10 28 34 3 61
-38 44z"/>
<path d="M5530 5919 c0 -5 5 -7 10 -4 6 3 10 8 10 11 0 2 -4 4 -10 4 -5 0 -10
-5 -10 -11z"/>
<path d="M5719 5894 c-8 -10 -34 -30 -59 -45 -32 -20 -39 -29 -25 -29 25 0 71
30 92 59 18 27 12 39 -8 15z"/>
<path d="M3372 5788 c5 -15 28 -18 29 -3 0 6 -7 12 -17 13 -10 3 -15 -1 -12
-10z"/>
<path d="M3273 5743 c-41 -16 36 -72 100 -73 31 0 31 0 16 34 -16 34 -78 55
-116 39z"/>
<path d="M2280 5720 c0 -5 10 -10 23 -10 18 0 19 2 7 10 -19 13 -30 13 -30 0z"/>
<path d="M7206 5691 c-23 -25 -34 -91 -15 -91 15 0 53 52 64 88 5 17 2 22 -13
22 -10 0 -27 -8 -36 -19z"/>
<path d="M7090 5609 c-6 -11 -10 -25 -8 -31 5 -14 38 19 38 38 0 21 -18 17
-30 -7z"/>
<path d="M2735 5306 c-30 -30 -32 -57 -7 -79 25 -22 44 -21 76 4 38 30 32 68
-12 86 -30 12 -34 12 -57 -11z"/>
<path d="M7733 5208 c-20 -26 -26 -41 -15 -34 12 7 36 46 29 46 -3 0 -9 -6
-14 -12z"/>
<path d="M1021 5160 c-21 -12 -5 -42 21 -38 12 2 23 8 25 15 6 16 -30 34 -46
23z"/>
<path d="M8133 5088 c-38 -42 -46 -67 -33 -99 22 -52 96 -47 140 9 25 32 25
53 -1 86 -27 34 -77 36 -106 4z"/>
<path d="M2823 5029 c-444 -39 -1111 -148 -1428 -232 -81 -22 -93 -28 -118
-63 -51 -69 -115 -213 -231 -516 -21 -54 -42 -100 -47 -103 -27 -17 1 -25 91
-25 72 0 102 4 105 13 22 71 115 310 146 377 59 124 109 170 187 170 23 0 49
-7 62 -18 l21 -17 -19 -225 c-10 -124 -16 -229 -12 -233 6 -6 178 7 185 15 2
2 9 96 17 210 8 114 17 210 20 214 4 3 114 -12 245 -35 131 -23 246 -41 256
-41 11 0 33 -24 59 -65 27 -42 48 -65 60 -65 11 0 17 -4 13 -10 -3 -5 49 -9
137 -8 121 1 170 -4 318 -31 96 -18 189 -35 206 -38 38 -6 33 -19 73 187 16
85 39 195 50 243 22 94 28 216 11 248 -21 38 -68 52 -190 55 -63 1 -161 -2
-217 -7z"/>
<path d="M8186 4823 c-46 -7 -74 -31 -92 -79 -16 -42 -16 -45 1 -64 17 -19
166 -60 220 -60 39 0 95 58 95 99 0 77 -51 116 -118 91 -30 -11 -36 -10 -44 4
-5 9 -14 15 -21 15 -7 -1 -25 -4 -41 -6z"/>
<path d="M4330 4804 c0 -23 65 -123 83 -128 12 -3 63 -6 114 -6 84 0 93 2 104
21 6 12 7 25 2 29 -4 4 -48 20 -98 34 -164 50 -205 60 -205 50z"/>
<path d="M5448 4613 c7 -3 16 -2 19 1 4 3 -2 6 -13 5 -11 0 -14 -3 -6 -6z"/>
<path d="M8490 4581 c-17 -32 -12 -40 35 -63 44 -21 46 -21 63 -4 16 17 16 19
-2 29 -11 7 -30 22 -43 35 -29 27 -39 28 -53 3z"/>
<path d="M7948 4569 c-10 -5 -15 -16 -12 -24 8 -20 63 -19 89 1 17 13 18 16 5
24 -19 12 -60 12 -82 -1z"/>
<path d="M6028 4443 c7 -3 16 -2 19 1 4 3 -2 6 -13 5 -11 0 -14 -3 -6 -6z"/>
<path d="M6128 4413 c7 -3 16 -2 19 1 4 3 -2 6 -13 5 -11 0 -14 -3 -6 -6z"/>
<path d="M8097 4338 c-23 -24 -45 -43 -51 -43 -17 0 -18 -25 -2 -31 9 -3 16
-14 16 -25 0 -30 42 -69 81 -75 89 -15 161 70 143 165 l-9 46 -69 3 -68 3 -41
-43z"/>
<path d="M6415 4330 c11 -5 27 -9 35 -9 9 0 8 4 -5 9 -11 5 -27 9 -35 9 -9 0
-8 -4 5 -9z"/>
<path d="M6480 4310 c8 -5 22 -9 30 -9 10 0 8 3 -5 9 -27 12 -43 12 -25 0z"/>
<path d="M8349 4266 c-23 -51 19 -77 57 -35 14 15 16 24 8 37 -18 28 -52 27
-65 -2z"/>
<path d="M7905 4190 c-3 -5 1 -10 9 -10 9 0 16 5 16 10 0 6 -4 10 -9 10 -6 0
-13 -4 -16 -10z"/>
<path d="M7765 4180 c-10 -16 4 -30 29 -30 15 0 26 7 29 20 4 17 0 20 -23 20
-16 0 -32 -4 -35 -10z"/>
<path d="M7981 4124 c-12 -15 -19 -29 -17 -31 6 -6 56 28 56 38 0 20 -20 17
-39 -7z"/>
<path d="M3680 4104 l-25 -15 25 8 c14 4 63 7 110 6 79 -1 81 0 30 7 -83 12
-113 11 -140 -6z"/>
<path d="M7820 4100 c0 -5 7 -10 15 -10 8 0 15 5 15 10 0 6 -7 10 -15 10 -8 0
-15 -4 -15 -10z"/>
<path d="M7846 4021 c-10 -16 6 -42 23 -39 9 2 17 13 19 26 3 16 -2 22 -17 22
-11 0 -22 -4 -25 -9z"/>
<path d="M1825 3980 c-33 -4 -92 -8 -132 -9 -39 -1 -74 -4 -76 -8 -3 -5 45 -5
106 -2 406 23 388 23 453 0 33 -11 67 -21 76 -21 22 0 151 40 146 46 -3 2 -24
-3 -48 -11 -53 -19 -123 -19 -175 0 -43 16 -240 18 -350 5z"/>
<path d="M470 3976 c0 -2 9 -6 20 -9 11 -3 18 -1 14 4 -5 9 -34 13 -34 5z"/>
<path d="M1185 3900 c-3 -6 1 -7 9 -4 18 7 21 14 7 14 -6 0 -13 -4 -16 -10z"/>
<path d="M1145 3880 c-16 -7 -17 -9 -3 -9 9 -1 20 4 23 9 7 11 7 11 -20 0z"/>
<path d="M8292 3158 c-7 -7 -12 -16 -12 -20 0 -12 28 -10 36 3 10 17 -10 31
-24 17z"/>
<path d="M445 3030 c-17 -19 -17 -20 9 -30 42 -15 66 -13 66 8 0 42 -45 55
-75 22z"/>
<path d="M7991 2684 c-27 -20 -38 -72 -17 -92 12 -12 23 -14 53 -6 33 8 38 13
41 42 5 53 -37 84 -77 56z"/>
<path d="M8630 2490 c-8 -5 -11 -12 -8 -16 11 -10 60 5 53 16 -8 12 -26 12
-45 0z"/>
<path d="M686 2473 c-11 -11 -6 -23 9 -23 8 0 15 4 15 9 0 13 -16 22 -24 14z"/>
<path d="M8800 2200 c0 -5 7 -10 15 -10 8 0 15 5 15 10 0 6 -7 10 -15 10 -8 0
-15 -4 -15 -10z"/>
<path d="M8731 2086 c-7 -8 -9 -25 -5 -41 5 -19 12 -25 28 -23 24 3 34 41 16
64 -15 18 -24 18 -39 0z"/>
<path d="M690 2019 c0 -5 5 -7 10 -4 6 3 10 8 10 11 0 2 -4 4 -10 4 -5 0 -10
-5 -10 -11z"/>
<path d="M7725 1996 c-76 -23 -43 -67 39 -52 39 7 61 29 52 51 -6 18 -36 18
-91 1z"/>
<path d="M315 1881 c-3 -5 -1 -12 5 -16 12 -7 30 2 30 16 0 12 -27 12 -35 0z"/>
<path d="M7725 1879 c-4 -6 -5 -12 -2 -15 7 -7 37 7 37 17 0 13 -27 11 -35 -2z"/>
<path d="M450 1865 c0 -8 7 -15 15 -15 8 0 15 4 15 9 0 5 -7 11 -15 15 -9 3
-15 0 -15 -9z"/>
<path d="M586 1854 c-34 -34 -12 -69 45 -69 44 0 79 29 79 66 0 16 -8 19 -54
19 -36 0 -60 -5 -70 -16z"/>
<path d="M8360 1790 c0 -11 7 -20 15 -20 8 0 15 9 15 20 0 11 -7 20 -15 20 -8
0 -15 -9 -15 -20z"/>
<path d="M7825 1749 c-9 -13 13 -30 35 -26 8 1 15 9 15 17 0 18 -40 26 -50 9z"/>
<path d="M483 1613 c-32 -6 -51 -32 -32 -44 23 -14 75 -10 90 7 11 14 10 18
-6 30 -10 8 -21 13 -24 13 -3 -1 -16 -4 -28 -6z"/>
<path d="M7427 1583 c-4 -3 -7 -17 -7 -30 0 -21 4 -24 27 -21 18 2 29 10 31
22 5 26 -33 48 -51 29z"/>
<path d="M7572 1503 c2 -12 11 -17 23 -15 36 7 35 15 -3 27 -20 6 -23 4 -20
-12z"/>
<path d="M7632 1489 c5 -17 48 -25 48 -10 0 6 -4 11 -9 11 -5 0 -17 3 -27 7
-12 4 -15 2 -12 -8z"/>
<path d="M7782 1488 c6 -16 55 -34 65 -24 10 10 -26 36 -50 36 -10 0 -17 -5
-15 -12z"/>
<path d="M243 1375 c-66 -28 -28 -46 48 -23 42 12 49 22 23 32 -22 9 -35 7
-71 -9z"/>
<path d="M4723 1301 c-64 -54 -24 -119 48 -81 22 12 25 46 7 85 -14 31 -15 31
-55 -4z"/>
<path d="M4607 1263 c-13 -12 -7 -23 12 -23 26 0 35 16 15 24 -19 7 -19 7 -27
-1z"/>
<path d="M4572 1189 c2 -6 8 -10 13 -10 5 0 11 4 13 10 2 6 -4 11 -13 11 -9 0
-15 -5 -13 -11z"/>
<path d="M4456 1134 c-7 -19 2 -37 15 -29 12 8 12 45 0 45 -5 0 -12 -7 -15
-16z"/>
<path d="M7421 1057 c-20 -25 -42 -88 -34 -101 6 -9 18 7 39 50 21 42 27 64
19 64 -7 0 -18 -6 -24 -13z"/>
<path d="M4044 1037 c-27 -24 -27 -25 -12 -49 26 -39 66 -45 97 -14 21 22 24
30 15 53 -13 39 -61 43 -100 10z"/>
<path d="M4784 1020 c-21 -8 -54 -46 -54 -62 0 -17 38 -7 64 17 38 36 33 61
-10 45z"/>
<path d="M4707 682 c-40 -41 -45 -52 -22 -52 15 0 85 67 85 82 0 19 -28 6 -63
-30z"/>
<path d="M3420 662 c0 -24 54 -72 80 -72 25 0 50 10 50 21 0 13 -70 57 -102
64 -24 6 -28 4 -28 -13z"/>
<path d="M3400 560 c0 -5 9 -10 20 -10 11 0 20 5 20 10 0 6 -9 10 -20 10 -11
0 -20 -4 -20 -10z"/>
<path d="M6057 544 c-10 -11 -8 -54 2 -54 14 0 25 40 14 51 -5 5 -12 6 -16 3z"/>
<path d="M4480 521 c0 -10 24 -21 47 -21 13 0 13 3 3 15 -13 16 -50 21 -50 6z"/>
<path d="M2966 484 c-7 -19 10 -44 29 -44 7 0 18 7 25 15 10 12 10 18 0 30
-16 20 -46 19 -54 -1z"/>
<path d="M2340 480 c-9 -6 -10 -10 -3 -10 6 0 15 5 18 10 8 12 4 12 -15 0z"/>
<path d="M1250 451 c-16 -30 -12 -36 10 -16 21 19 26 35 10 35 -5 0 -14 -9
-20 -19z"/>
<path d="M5966 444 c-9 -36 2 -84 20 -84 25 0 36 47 19 81 -19 36 -31 37 -39
3z"/>
<path d="M1148 448 c-21 -18 -48 -60 -48 -75 0 -26 40 -13 60 20 32 51 25 84
-12 55z"/>
<path d="M6895 440 c-4 -6 -3 -16 3 -22 6 -6 12 -6 17 2 4 6 3 16 -3 22 -6 6
-12 6 -17 -2z"/>
<path d="M3390 402 c0 -12 34 -42 48 -42 18 0 14 37 -4 44 -22 9 -44 7 -44 -2z"/>
<path d="M3086 318 c38 -43 64 -63 49 -37 -25 41 -59 79 -72 79 -10 0 -2 -15
23 -42z"/>
<path d="M3220 214 c0 -24 19 -54 35 -54 19 0 19 20 -1 48 -18 26 -34 29 -34
6z"/>
<path d="M4460 185 c0 -17 2 -18 24 -9 23 9 20 24 -4 24 -11 0 -20 -7 -20 -15z"/>
<path d="M4327 132 c-32 -35 -16 -73 22 -53 22 12 33 35 25 56 -8 20 -27 19
-47 -3z"/>
<path d="M3873 133 c-17 -6 -16 -33 1 -33 17 0 38 24 29 33 -7 8 -12 8 -30 0z"/>
<path d="M2655 71 c-40 -18 -72 -47 -63 -57 7 -6 108 56 108 67 0 11 2 12 -45
-10z"/>
</g>
</svg>
